<?xml version="1.0" encoding="UTF-8" standalone="no"?>
<!DOCTYPE svg PUBLIC "-//W3C//DTD SVG 1.1//EN" "http://www.w3.org/Graphics/SVG/1.1/DTD/svg11.dtd">
<svg width="100%" height="100%" viewBox="0 0 279 24" version="1.1" xmlns="http://www.w3.org/2000/svg" xmlns:xlink="http://www.w3.org/1999/xlink" xml:space="preserve" xmlns:serif="http://www.serif.com/" style="fill-rule:evenodd;clip-rule:evenodd;stroke-linecap:square;stroke-linejoin:round;stroke-miterlimit:1.5;">
    <g transform="matrix(1,0,0,1,-1900.88,-431.532)">
        <g id="LogoBannerNeu" transform="matrix(2.05746,0,0,1.28504,-2353.67,-137.067)">
            <rect x="2067.86" y="442.476" width="135.488" height="18.676" style="fill:none;"/>
            <g id="Rahmen" transform="matrix(1.11926,0,0,1.70981,-254.202,-320.613)">
                <g transform="matrix(1,0,0,1,0.862392,0.475973)">
                    <path d="M2074.38,456.328L2194.2,456.328" style="fill:none;stroke:rgb(20,28,152);stroke-width:0.44px;"/>
                </g>
                <g transform="matrix(1,0,0,1,0.862392,0.475973)">
                    <path d="M2074.38,446.622L2074.38,456.328" style="fill:none;stroke:rgb(37,107,36);stroke-width:0.44px;"/>
                </g>
                <g transform="matrix(1,0,0,1,0.862392,0.475973)">
                    <path d="M2194.2,456.328L2194.2,446.622" style="fill:none;stroke:rgb(173,0,82);stroke-width:0.44px;"/>
                </g>
                <g transform="matrix(1,0,0,1,0.862392,0.475973)">
                    <path d="M2194.2,446.622L2074.38,446.622" style="fill:none;stroke:rgb(202,86,26);stroke-width:0.44px;"/>
                </g>
            </g>
            <g id="Säulen" transform="matrix(0.164181,0,0,0.152207,2026.71,387.668)">
                <g opacity="0.85">
                    <g transform="matrix(0.988732,0,0,0.589124,332.13,382.908)">
                        <path d="M38.826,0L38.826,138" style="fill:none;stroke:rgb(225,99,12);stroke-width:10.01px;stroke-linecap:butt;"/>
                    </g>
                    <g transform="matrix(0.988732,0,0,0.589124,308.401,382.908)">
                        <path d="M38.826,0L38.826,138" style="fill:none;stroke:rgb(195,0,92);stroke-width:10.84px;stroke-linecap:butt;"/>
                    </g>
                    <g transform="matrix(0.988732,0,0,0.589124,284.671,382.908)">
                        <path d="M38.826,0L38.826,138" style="fill:none;stroke:rgb(3,31,171);stroke-width:10.01px;stroke-linecap:butt;"/>
                    </g>
                    <g transform="matrix(0.988732,0,0,0.589124,260.941,382.908)">
                        <path d="M38.826,0L38.826,138" style="fill:none;stroke:rgb(26,119,29);stroke-width:10.01px;stroke-linecap:butt;"/>
                    </g>
                </g>
            </g>
            <g id="Text" transform="matrix(0.0937988,0,0,0.195383,2082.29,444.492)">
                <g transform="matrix(2.0563,0,0,0.43808,-57.5513,18.6753)">
                    <g transform="matrix(24.0742,0,0,86.8581,300.22,84.6218)">
                        <path d="M0.477,-0.011C0.477,-0.008 0.477,-0.007 0.476,-0.005C0.475,-0.003 0.474,-0.002 0.472,-0.001C0.469,0 0.466,0.001 0.462,0.002C0.458,0.003 0.453,0.003 0.447,0.003C0.441,0.003 0.435,0.003 0.429,0.002C0.423,0.001 0.419,-0 0.416,-0.002C0.412,-0.004 0.41,-0.007 0.407,-0.01L0.152,-0.334L0.152,-0.01C0.152,-0.008 0.151,-0.006 0.15,-0.004C0.149,-0.003 0.148,-0.001 0.146,-0C0.143,0 0.14,0.001 0.136,0.002C0.133,0.003 0.128,0.003 0.122,0.003C0.117,0.003 0.112,0.003 0.108,0.002C0.104,0.001 0.101,0 0.099,-0C0.096,-0.001 0.095,-0.003 0.094,-0.004C0.093,-0.006 0.092,-0.008 0.092,-0.01L0.092,-0.622C0.092,-0.624 0.093,-0.626 0.094,-0.627C0.095,-0.629 0.096,-0.63 0.099,-0.631C0.101,-0.632 0.104,-0.633 0.108,-0.634C0.112,-0.634 0.117,-0.635 0.122,-0.635C0.128,-0.635 0.133,-0.634 0.136,-0.634C0.14,-0.633 0.143,-0.632 0.146,-0.631C0.148,-0.63 0.149,-0.629 0.15,-0.627C0.151,-0.626 0.152,-0.624 0.152,-0.622L0.152,-0.335L0.396,-0.622C0.398,-0.624 0.401,-0.626 0.403,-0.628C0.405,-0.63 0.408,-0.631 0.411,-0.632C0.414,-0.633 0.417,-0.634 0.421,-0.634C0.425,-0.635 0.43,-0.635 0.436,-0.635C0.441,-0.635 0.446,-0.634 0.45,-0.634C0.453,-0.633 0.456,-0.632 0.458,-0.631C0.46,-0.63 0.462,-0.629 0.462,-0.627C0.463,-0.626 0.463,-0.624 0.463,-0.622C0.463,-0.618 0.462,-0.615 0.461,-0.612C0.459,-0.609 0.456,-0.605 0.452,-0.6L0.222,-0.337L0.467,-0.029C0.472,-0.023 0.475,-0.019 0.476,-0.017C0.477,-0.014 0.477,-0.012 0.477,-0.011Z" style="fill-rule:nonzero;"/>
                    </g>
                    <g transform="matrix(24.0742,0,0,86.8581,311.893,84.6218)">
                        <path d="M0.327,-0.429C0.327,-0.424 0.326,-0.42 0.326,-0.417C0.326,-0.413 0.325,-0.411 0.324,-0.408C0.324,-0.406 0.323,-0.405 0.322,-0.404C0.32,-0.402 0.319,-0.402 0.317,-0.402C0.314,-0.402 0.311,-0.403 0.307,-0.404C0.303,-0.406 0.298,-0.407 0.293,-0.409C0.288,-0.41 0.282,-0.412 0.276,-0.413C0.27,-0.415 0.263,-0.416 0.255,-0.416C0.247,-0.416 0.238,-0.414 0.229,-0.41C0.221,-0.406 0.212,-0.4 0.203,-0.392C0.194,-0.384 0.184,-0.373 0.174,-0.359C0.163,-0.345 0.152,-0.328 0.14,-0.309L0.14,-0.01C0.14,-0.008 0.139,-0.006 0.138,-0.004C0.137,-0.003 0.136,-0.001 0.134,-0C0.131,0 0.128,0.001 0.125,0.002C0.121,0.003 0.116,0.003 0.11,0.003C0.105,0.003 0.1,0.003 0.096,0.002C0.093,0.001 0.09,0 0.087,-0C0.085,-0.001 0.084,-0.003 0.083,-0.004C0.082,-0.006 0.082,-0.008 0.082,-0.01L0.082,-0.452C0.082,-0.454 0.082,-0.455 0.083,-0.457C0.084,-0.459 0.085,-0.46 0.087,-0.461C0.09,-0.462 0.093,-0.463 0.096,-0.464C0.099,-0.464 0.104,-0.464 0.109,-0.464C0.115,-0.464 0.119,-0.464 0.123,-0.464C0.127,-0.463 0.129,-0.462 0.131,-0.461C0.133,-0.46 0.135,-0.459 0.135,-0.457C0.136,-0.455 0.137,-0.454 0.137,-0.452L0.137,-0.382C0.149,-0.4 0.161,-0.415 0.172,-0.427C0.183,-0.438 0.193,-0.447 0.203,-0.453C0.212,-0.46 0.222,-0.464 0.231,-0.466C0.24,-0.469 0.25,-0.47 0.26,-0.47C0.264,-0.47 0.269,-0.469 0.274,-0.469C0.28,-0.469 0.286,-0.468 0.292,-0.466C0.299,-0.465 0.304,-0.463 0.309,-0.462C0.314,-0.46 0.318,-0.458 0.32,-0.457C0.322,-0.455 0.323,-0.454 0.324,-0.453C0.324,-0.452 0.325,-0.45 0.325,-0.448C0.326,-0.447 0.326,-0.444 0.326,-0.441C0.327,-0.438 0.327,-0.434 0.327,-0.429Z" style="fill-rule:nonzero;"/>
                    </g>
                    <g transform="matrix(24.0742,0,0,86.8581,319.839,84.6218)">
                        <path d="M0.442,-0.253C0.442,-0.242 0.439,-0.234 0.433,-0.229C0.426,-0.225 0.42,-0.223 0.415,-0.223L0.113,-0.223C0.113,-0.195 0.116,-0.171 0.121,-0.148C0.127,-0.126 0.136,-0.107 0.148,-0.092C0.16,-0.076 0.176,-0.064 0.196,-0.055C0.216,-0.047 0.241,-0.042 0.27,-0.042C0.29,-0.042 0.308,-0.044 0.325,-0.048C0.341,-0.051 0.355,-0.055 0.367,-0.06C0.379,-0.064 0.389,-0.068 0.396,-0.072C0.404,-0.075 0.409,-0.077 0.413,-0.077C0.415,-0.077 0.416,-0.077 0.418,-0.076C0.42,-0.075 0.421,-0.073 0.422,-0.071C0.423,-0.069 0.424,-0.066 0.424,-0.063C0.425,-0.06 0.425,-0.056 0.425,-0.051C0.425,-0.049 0.425,-0.046 0.424,-0.044C0.424,-0.042 0.424,-0.04 0.423,-0.038C0.423,-0.037 0.422,-0.035 0.421,-0.033C0.42,-0.032 0.419,-0.03 0.417,-0.028C0.415,-0.027 0.41,-0.024 0.402,-0.02C0.393,-0.016 0.382,-0.012 0.369,-0.008C0.355,-0.003 0.339,0 0.321,0.003C0.303,0.007 0.284,0.008 0.263,0.008C0.229,0.008 0.198,0.003 0.172,-0.007C0.146,-0.017 0.123,-0.032 0.105,-0.052C0.088,-0.073 0.074,-0.097 0.065,-0.127C0.055,-0.157 0.051,-0.191 0.051,-0.23C0.051,-0.267 0.056,-0.301 0.065,-0.331C0.075,-0.36 0.089,-0.385 0.106,-0.406C0.124,-0.427 0.146,-0.442 0.171,-0.453C0.196,-0.464 0.224,-0.47 0.255,-0.47C0.289,-0.47 0.317,-0.464 0.34,-0.453C0.364,-0.442 0.383,-0.427 0.398,-0.408C0.413,-0.39 0.424,-0.368 0.431,-0.343C0.438,-0.319 0.442,-0.292 0.442,-0.265L0.442,-0.253ZM0.382,-0.271C0.383,-0.317 0.372,-0.354 0.35,-0.38C0.327,-0.407 0.294,-0.42 0.251,-0.42C0.229,-0.42 0.21,-0.416 0.193,-0.407C0.176,-0.399 0.162,-0.388 0.151,-0.375C0.139,-0.361 0.13,-0.345 0.124,-0.327C0.118,-0.309 0.114,-0.29 0.113,-0.271L0.382,-0.271Z" style="fill-rule:nonzero;"/>
                    </g>
                    <g transform="matrix(24.0742,0,0,86.8581,331.735,84.6218)">
                        <path d="M0.14,-0.01C0.14,-0.008 0.139,-0.006 0.138,-0.004C0.137,-0.003 0.136,-0.001 0.134,-0C0.131,0 0.128,0.001 0.125,0.002C0.121,0.003 0.116,0.003 0.11,0.003C0.105,0.003 0.1,0.003 0.096,0.002C0.093,0.001 0.09,0 0.087,-0C0.085,-0.001 0.084,-0.003 0.083,-0.004C0.082,-0.006 0.082,-0.008 0.082,-0.01L0.082,-0.452C0.082,-0.454 0.082,-0.455 0.083,-0.457C0.084,-0.459 0.085,-0.46 0.087,-0.461C0.09,-0.462 0.093,-0.463 0.096,-0.464C0.1,-0.464 0.105,-0.464 0.11,-0.464C0.116,-0.464 0.121,-0.464 0.125,-0.464C0.128,-0.463 0.131,-0.462 0.134,-0.461C0.136,-0.46 0.137,-0.459 0.138,-0.457C0.139,-0.455 0.14,-0.454 0.14,-0.452L0.14,-0.01ZM0.148,-0.601C0.148,-0.585 0.146,-0.574 0.14,-0.569C0.135,-0.563 0.125,-0.561 0.11,-0.561C0.096,-0.561 0.086,-0.563 0.08,-0.569C0.075,-0.574 0.072,-0.584 0.072,-0.6C0.072,-0.616 0.075,-0.626 0.081,-0.632C0.086,-0.637 0.096,-0.64 0.111,-0.64C0.125,-0.64 0.135,-0.637 0.14,-0.632C0.146,-0.627 0.148,-0.616 0.148,-0.601Z" style="fill-rule:nonzero;"/>
                    </g>
                    <g transform="matrix(24.0742,0,0,86.8581,337.049,84.6218)">
                        <path d="M0.341,-0.127C0.341,-0.106 0.337,-0.087 0.33,-0.071C0.322,-0.054 0.311,-0.04 0.296,-0.028C0.282,-0.016 0.264,-0.007 0.244,-0.001C0.224,0.005 0.202,0.008 0.177,0.008C0.162,0.008 0.147,0.007 0.134,0.005C0.12,0.002 0.108,-0.001 0.097,-0.005C0.086,-0.008 0.076,-0.012 0.069,-0.017C0.061,-0.021 0.055,-0.025 0.052,-0.028C0.048,-0.031 0.046,-0.035 0.044,-0.04C0.042,-0.045 0.042,-0.051 0.042,-0.06C0.042,-0.064 0.042,-0.068 0.042,-0.071C0.043,-0.074 0.044,-0.077 0.045,-0.079C0.046,-0.081 0.047,-0.083 0.049,-0.084C0.05,-0.085 0.052,-0.086 0.054,-0.086C0.058,-0.086 0.063,-0.084 0.07,-0.079C0.077,-0.075 0.085,-0.07 0.095,-0.064C0.106,-0.059 0.118,-0.054 0.132,-0.049C0.146,-0.045 0.163,-0.042 0.181,-0.042C0.196,-0.042 0.21,-0.044 0.222,-0.047C0.235,-0.051 0.245,-0.056 0.254,-0.062C0.264,-0.069 0.271,-0.077 0.276,-0.087C0.281,-0.097 0.283,-0.109 0.283,-0.123C0.283,-0.137 0.28,-0.148 0.273,-0.158C0.267,-0.167 0.258,-0.175 0.248,-0.182C0.237,-0.189 0.225,-0.196 0.212,-0.201C0.198,-0.206 0.184,-0.212 0.17,-0.218C0.156,-0.223 0.142,-0.229 0.129,-0.236C0.115,-0.243 0.103,-0.251 0.093,-0.261C0.082,-0.271 0.073,-0.283 0.067,-0.296C0.06,-0.31 0.057,-0.326 0.057,-0.346C0.057,-0.361 0.06,-0.376 0.066,-0.391C0.072,-0.406 0.081,-0.419 0.093,-0.431C0.105,-0.442 0.121,-0.452 0.14,-0.459C0.159,-0.466 0.181,-0.47 0.208,-0.47C0.219,-0.47 0.23,-0.469 0.24,-0.467C0.251,-0.465 0.261,-0.463 0.27,-0.46C0.279,-0.457 0.287,-0.454 0.293,-0.45C0.3,-0.447 0.305,-0.444 0.308,-0.441C0.312,-0.439 0.314,-0.437 0.315,-0.435C0.316,-0.433 0.317,-0.431 0.318,-0.429C0.318,-0.427 0.319,-0.425 0.319,-0.422C0.319,-0.419 0.319,-0.416 0.319,-0.412C0.319,-0.408 0.319,-0.405 0.319,-0.402C0.318,-0.399 0.317,-0.396 0.316,-0.394C0.315,-0.391 0.314,-0.39 0.313,-0.388C0.311,-0.387 0.31,-0.387 0.308,-0.387C0.305,-0.387 0.301,-0.389 0.296,-0.392C0.291,-0.396 0.284,-0.4 0.275,-0.404C0.267,-0.408 0.257,-0.412 0.245,-0.416C0.233,-0.419 0.22,-0.421 0.205,-0.421C0.189,-0.421 0.176,-0.419 0.164,-0.416C0.153,-0.412 0.143,-0.407 0.136,-0.4C0.128,-0.394 0.123,-0.386 0.119,-0.377C0.115,-0.369 0.113,-0.359 0.113,-0.349C0.113,-0.334 0.117,-0.322 0.123,-0.313C0.13,-0.303 0.138,-0.294 0.149,-0.287C0.16,-0.28 0.172,-0.274 0.186,-0.268C0.199,-0.263 0.213,-0.257 0.227,-0.251C0.241,-0.246 0.255,-0.24 0.269,-0.233C0.283,-0.226 0.295,-0.218 0.306,-0.209C0.316,-0.2 0.325,-0.188 0.332,-0.175C0.338,-0.162 0.341,-0.146 0.341,-0.127Z" style="fill-rule:nonzero;"/>
                    </g>
                    <g transform="matrix(24.0742,0,0,86.8581,345.947,84.6218)">
                        <path d="M0.42,-0.453L0.419,-0.446L0.417,-0.44L0.257,-0.01C0.256,-0.007 0.255,-0.005 0.253,-0.003C0.251,-0.002 0.249,-0 0.246,0C0.243,0.001 0.239,0.002 0.235,0.002C0.231,0.003 0.226,0.003 0.221,0.003C0.215,0.003 0.21,0.003 0.206,0.002C0.202,0.002 0.198,0.001 0.195,-0C0.192,-0.001 0.19,-0.002 0.188,-0.004C0.186,-0.006 0.185,-0.007 0.184,-0.01L0.023,-0.44C0.022,-0.443 0.022,-0.445 0.021,-0.446C0.021,-0.448 0.02,-0.449 0.02,-0.45C0.02,-0.451 0.02,-0.452 0.02,-0.453C0.02,-0.455 0.021,-0.457 0.021,-0.458C0.022,-0.46 0.024,-0.461 0.026,-0.462C0.028,-0.463 0.031,-0.464 0.035,-0.464C0.038,-0.464 0.043,-0.464 0.048,-0.464C0.055,-0.464 0.061,-0.464 0.065,-0.464C0.069,-0.463 0.073,-0.462 0.075,-0.461C0.077,-0.46 0.079,-0.459 0.08,-0.458C0.081,-0.456 0.083,-0.454 0.083,-0.452L0.222,-0.066L0.223,-0.063L0.224,-0.066L0.359,-0.452C0.36,-0.454 0.361,-0.456 0.362,-0.458C0.364,-0.459 0.365,-0.46 0.368,-0.461C0.37,-0.462 0.374,-0.463 0.378,-0.464C0.382,-0.464 0.387,-0.464 0.394,-0.464C0.399,-0.464 0.403,-0.464 0.406,-0.464C0.41,-0.464 0.413,-0.463 0.415,-0.462C0.417,-0.461 0.418,-0.46 0.419,-0.458C0.42,-0.457 0.42,-0.455 0.42,-0.453Z" style="fill-rule:nonzero;"/>
                    </g>
                    <g transform="matrix(24.0742,0,0,86.8581,356.303,84.6218)">
                        <path d="M0.442,-0.253C0.442,-0.242 0.439,-0.234 0.433,-0.229C0.426,-0.225 0.42,-0.223 0.415,-0.223L0.113,-0.223C0.113,-0.195 0.116,-0.171 0.121,-0.148C0.127,-0.126 0.136,-0.107 0.148,-0.092C0.16,-0.076 0.176,-0.064 0.196,-0.055C0.216,-0.047 0.241,-0.042 0.27,-0.042C0.29,-0.042 0.308,-0.044 0.325,-0.048C0.341,-0.051 0.355,-0.055 0.367,-0.06C0.379,-0.064 0.389,-0.068 0.396,-0.072C0.404,-0.075 0.409,-0.077 0.413,-0.077C0.415,-0.077 0.416,-0.077 0.418,-0.076C0.42,-0.075 0.421,-0.073 0.422,-0.071C0.423,-0.069 0.424,-0.066 0.424,-0.063C0.425,-0.06 0.425,-0.056 0.425,-0.051C0.425,-0.049 0.425,-0.046 0.424,-0.044C0.424,-0.042 0.424,-0.04 0.423,-0.038C0.423,-0.037 0.422,-0.035 0.421,-0.033C0.42,-0.032 0.419,-0.03 0.417,-0.028C0.415,-0.027 0.41,-0.024 0.402,-0.02C0.393,-0.016 0.382,-0.012 0.369,-0.008C0.355,-0.003 0.339,0 0.321,0.003C0.303,0.007 0.284,0.008 0.263,0.008C0.229,0.008 0.198,0.003 0.172,-0.007C0.146,-0.017 0.123,-0.032 0.105,-0.052C0.088,-0.073 0.074,-0.097 0.065,-0.127C0.055,-0.157 0.051,-0.191 0.051,-0.23C0.051,-0.267 0.056,-0.301 0.065,-0.331C0.075,-0.36 0.089,-0.385 0.106,-0.406C0.124,-0.427 0.146,-0.442 0.171,-0.453C0.196,-0.464 0.224,-0.47 0.255,-0.47C0.289,-0.47 0.317,-0.464 0.34,-0.453C0.364,-0.442 0.383,-0.427 0.398,-0.408C0.413,-0.39 0.424,-0.368 0.431,-0.343C0.438,-0.319 0.442,-0.292 0.442,-0.265L0.442,-0.253ZM0.382,-0.271C0.383,-0.317 0.372,-0.354 0.35,-0.38C0.327,-0.407 0.294,-0.42 0.251,-0.42C0.229,-0.42 0.21,-0.416 0.193,-0.407C0.176,-0.399 0.162,-0.388 0.151,-0.375C0.139,-0.361 0.13,-0.345 0.124,-0.327C0.118,-0.309 0.114,-0.29 0.113,-0.271L0.382,-0.271Z" style="fill-rule:nonzero;"/>
                    </g>
                    <g transform="matrix(24.0742,0,0,86.8581,368.199,84.6218)">
                        <path d="M0.327,-0.429C0.327,-0.424 0.326,-0.42 0.326,-0.417C0.326,-0.413 0.325,-0.411 0.324,-0.408C0.324,-0.406 0.323,-0.405 0.322,-0.404C0.32,-0.402 0.319,-0.402 0.317,-0.402C0.314,-0.402 0.311,-0.403 0.307,-0.404C0.303,-0.406 0.298,-0.407 0.293,-0.409C0.288,-0.41 0.282,-0.412 0.276,-0.413C0.27,-0.415 0.263,-0.416 0.255,-0.416C0.247,-0.416 0.238,-0.414 0.229,-0.41C0.221,-0.406 0.212,-0.4 0.203,-0.392C0.194,-0.384 0.184,-0.373 0.174,-0.359C0.163,-0.345 0.152,-0.328 0.14,-0.309L0.14,-0.01C0.14,-0.008 0.139,-0.006 0.138,-0.004C0.137,-0.003 0.136,-0.001 0.134,-0C0.131,0 0.128,0.001 0.125,0.002C0.121,0.003 0.116,0.003 0.11,0.003C0.105,0.003 0.1,0.003 0.096,0.002C0.093,0.001 0.09,0 0.087,-0C0.085,-0.001 0.084,-0.003 0.083,-0.004C0.082,-0.006 0.082,-0.008 0.082,-0.01L0.082,-0.452C0.082,-0.454 0.082,-0.455 0.083,-0.457C0.084,-0.459 0.085,-0.46 0.087,-0.461C0.09,-0.462 0.093,-0.463 0.096,-0.464C0.099,-0.464 0.104,-0.464 0.109,-0.464C0.115,-0.464 0.119,-0.464 0.123,-0.464C0.127,-0.463 0.129,-0.462 0.131,-0.461C0.133,-0.46 0.135,-0.459 0.135,-0.457C0.136,-0.455 0.137,-0.454 0.137,-0.452L0.137,-0.382C0.149,-0.4 0.161,-0.415 0.172,-0.427C0.183,-0.438 0.193,-0.447 0.203,-0.453C0.212,-0.46 0.222,-0.464 0.231,-0.466C0.24,-0.469 0.25,-0.47 0.26,-0.47C0.264,-0.47 0.269,-0.469 0.274,-0.469C0.28,-0.469 0.286,-0.468 0.292,-0.466C0.299,-0.465 0.304,-0.463 0.309,-0.462C0.314,-0.46 0.318,-0.458 0.32,-0.457C0.322,-0.455 0.323,-0.454 0.324,-0.453C0.324,-0.452 0.325,-0.45 0.325,-0.448C0.326,-0.447 0.326,-0.444 0.326,-0.441C0.327,-0.438 0.327,-0.434 0.327,-0.429Z" style="fill-rule:nonzero;"/>
                    </g>
                    <g transform="matrix(24.0742,0,0,86.8581,376.498,84.6218)">
                        <path d="M0.467,-0.236C0.467,-0.199 0.463,-0.165 0.455,-0.135C0.447,-0.104 0.435,-0.079 0.419,-0.058C0.403,-0.036 0.383,-0.02 0.359,-0.009C0.336,0.003 0.308,0.008 0.278,0.008C0.264,0.008 0.252,0.007 0.24,0.004C0.228,0.001 0.217,-0.003 0.206,-0.009C0.195,-0.015 0.184,-0.023 0.172,-0.033C0.161,-0.042 0.148,-0.054 0.135,-0.067L0.135,-0.01C0.135,-0.007 0.134,-0.006 0.133,-0.004C0.132,-0.002 0.131,-0.001 0.128,-0C0.126,0.001 0.123,0.002 0.12,0.002C0.117,0.003 0.113,0.003 0.108,0.003C0.103,0.003 0.099,0.003 0.095,0.002C0.092,0.002 0.089,0.001 0.087,-0C0.085,-0.001 0.084,-0.002 0.083,-0.004C0.082,-0.006 0.082,-0.007 0.082,-0.01L0.082,-0.668C0.082,-0.67 0.082,-0.672 0.083,-0.673C0.084,-0.675 0.085,-0.676 0.087,-0.677C0.09,-0.679 0.093,-0.679 0.096,-0.68C0.1,-0.68 0.105,-0.681 0.11,-0.681C0.116,-0.681 0.121,-0.68 0.125,-0.68C0.128,-0.679 0.131,-0.679 0.134,-0.677C0.136,-0.676 0.137,-0.675 0.138,-0.673C0.139,-0.672 0.14,-0.67 0.14,-0.668L0.14,-0.392C0.154,-0.407 0.167,-0.419 0.18,-0.429C0.192,-0.439 0.205,-0.447 0.217,-0.453C0.229,-0.459 0.241,-0.463 0.253,-0.466C0.265,-0.468 0.277,-0.47 0.29,-0.47C0.321,-0.47 0.349,-0.464 0.371,-0.451C0.394,-0.439 0.412,-0.422 0.427,-0.401C0.441,-0.38 0.451,-0.355 0.458,-0.327C0.464,-0.298 0.467,-0.268 0.467,-0.236ZM0.406,-0.227C0.406,-0.252 0.404,-0.276 0.4,-0.299C0.396,-0.322 0.39,-0.342 0.38,-0.36C0.371,-0.378 0.358,-0.393 0.343,-0.404C0.327,-0.414 0.308,-0.42 0.284,-0.42C0.273,-0.42 0.261,-0.418 0.25,-0.415C0.239,-0.412 0.228,-0.406 0.216,-0.399C0.204,-0.391 0.192,-0.382 0.179,-0.37C0.167,-0.358 0.154,-0.343 0.14,-0.326L0.14,-0.133C0.164,-0.104 0.188,-0.081 0.21,-0.065C0.233,-0.049 0.256,-0.042 0.281,-0.042C0.303,-0.042 0.322,-0.047 0.338,-0.058C0.354,-0.069 0.367,-0.083 0.377,-0.101C0.388,-0.118 0.395,-0.138 0.399,-0.16C0.404,-0.182 0.406,-0.205 0.406,-0.227Z" style="fill-rule:nonzero;"/>
                    </g>
                    <g transform="matrix(24.0742,0,0,86.8581,389.005,84.6218)">
                        <path d="M0.391,-0.01C0.391,-0.007 0.39,-0.004 0.388,-0.002C0.386,-0 0.383,0.001 0.38,0.002C0.376,0.003 0.372,0.003 0.366,0.003C0.36,0.003 0.355,0.003 0.352,0.002C0.348,0.001 0.345,-0 0.343,-0.002C0.34,-0.004 0.339,-0.007 0.339,-0.01L0.339,-0.059C0.319,-0.038 0.298,-0.021 0.274,-0.009C0.25,0.002 0.225,0.008 0.199,0.008C0.176,0.008 0.155,0.005 0.137,-0.001C0.119,-0.007 0.103,-0.015 0.09,-0.027C0.078,-0.038 0.068,-0.051 0.061,-0.067C0.054,-0.083 0.051,-0.101 0.051,-0.121C0.051,-0.146 0.056,-0.167 0.066,-0.185C0.076,-0.203 0.09,-0.218 0.109,-0.23C0.127,-0.242 0.15,-0.251 0.176,-0.257C0.202,-0.263 0.231,-0.266 0.263,-0.266L0.333,-0.266L0.333,-0.304C0.333,-0.323 0.331,-0.34 0.327,-0.354C0.323,-0.369 0.317,-0.381 0.308,-0.391C0.299,-0.4 0.288,-0.408 0.274,-0.413C0.26,-0.417 0.243,-0.42 0.223,-0.42C0.203,-0.42 0.186,-0.418 0.17,-0.413C0.154,-0.408 0.141,-0.403 0.129,-0.397C0.117,-0.391 0.108,-0.386 0.1,-0.381C0.092,-0.376 0.087,-0.374 0.083,-0.374C0.082,-0.374 0.08,-0.374 0.078,-0.375C0.076,-0.376 0.075,-0.377 0.074,-0.379C0.073,-0.38 0.072,-0.383 0.072,-0.385C0.071,-0.388 0.071,-0.392 0.071,-0.396C0.071,-0.402 0.071,-0.408 0.072,-0.412C0.073,-0.416 0.076,-0.42 0.08,-0.424C0.084,-0.428 0.091,-0.433 0.102,-0.438C0.112,-0.444 0.124,-0.449 0.137,-0.454C0.151,-0.459 0.166,-0.462 0.181,-0.465C0.197,-0.468 0.212,-0.47 0.228,-0.47C0.258,-0.47 0.284,-0.466 0.305,-0.459C0.326,-0.451 0.342,-0.441 0.355,-0.427C0.368,-0.414 0.377,-0.397 0.383,-0.377C0.388,-0.357 0.391,-0.334 0.391,-0.309L0.391,-0.01ZM0.333,-0.218L0.252,-0.218C0.229,-0.218 0.208,-0.216 0.191,-0.212C0.173,-0.208 0.159,-0.201 0.147,-0.193C0.135,-0.185 0.127,-0.175 0.121,-0.164C0.115,-0.153 0.112,-0.14 0.112,-0.125C0.112,-0.1 0.12,-0.079 0.136,-0.064C0.153,-0.049 0.175,-0.042 0.205,-0.042C0.228,-0.042 0.249,-0.047 0.269,-0.059C0.289,-0.071 0.311,-0.09 0.333,-0.114L0.333,-0.218Z" style="fill-rule:nonzero;"/>
                    </g>
                    <g transform="matrix(24.0742,0,0,86.8581,400.337,84.6218)">
                        <path d="M0.44,-0.01C0.44,-0.008 0.439,-0.006 0.438,-0.004C0.438,-0.003 0.436,-0.001 0.434,-0C0.432,0 0.429,0.001 0.425,0.002C0.421,0.003 0.417,0.003 0.411,0.003C0.405,0.003 0.4,0.003 0.397,0.002C0.393,0.001 0.39,0 0.388,-0C0.386,-0.001 0.384,-0.003 0.383,-0.004C0.382,-0.006 0.382,-0.008 0.382,-0.01L0.382,-0.272C0.382,-0.299 0.38,-0.322 0.375,-0.339C0.371,-0.356 0.365,-0.37 0.356,-0.383C0.348,-0.395 0.337,-0.404 0.324,-0.411C0.311,-0.418 0.295,-0.421 0.278,-0.421C0.255,-0.421 0.233,-0.413 0.21,-0.397C0.188,-0.381 0.164,-0.358 0.14,-0.327L0.14,-0.01C0.14,-0.008 0.139,-0.006 0.138,-0.004C0.137,-0.003 0.136,-0.001 0.134,-0C0.131,0 0.128,0.001 0.125,0.002C0.121,0.003 0.116,0.003 0.11,0.003C0.105,0.003 0.1,0.003 0.096,0.002C0.093,0.001 0.09,0 0.087,-0C0.085,-0.001 0.084,-0.003 0.083,-0.004C0.082,-0.006 0.082,-0.008 0.082,-0.01L0.082,-0.452C0.082,-0.454 0.082,-0.455 0.083,-0.457C0.084,-0.459 0.085,-0.46 0.087,-0.461C0.09,-0.462 0.093,-0.463 0.096,-0.464C0.099,-0.464 0.104,-0.464 0.109,-0.464C0.115,-0.464 0.119,-0.464 0.123,-0.464C0.127,-0.463 0.129,-0.462 0.131,-0.461C0.133,-0.46 0.135,-0.459 0.135,-0.457C0.136,-0.455 0.137,-0.454 0.137,-0.452L0.137,-0.389C0.162,-0.417 0.187,-0.438 0.211,-0.451C0.236,-0.463 0.26,-0.47 0.284,-0.47C0.313,-0.47 0.338,-0.465 0.357,-0.455C0.377,-0.445 0.393,-0.432 0.406,-0.416C0.418,-0.399 0.427,-0.38 0.432,-0.357C0.437,-0.335 0.44,-0.309 0.44,-0.277L0.44,-0.01Z" style="fill-rule:nonzero;"/>
                    </g>
                    <g transform="matrix(24.0742,0,0,86.8581,412.845,84.6218)">
                        <path d="M0.438,-0.01C0.438,-0.007 0.438,-0.006 0.437,-0.004C0.436,-0.002 0.434,-0.001 0.432,-0C0.43,0.001 0.428,0.002 0.424,0.002C0.421,0.003 0.417,0.003 0.412,0.003C0.407,0.003 0.403,0.003 0.399,0.002C0.396,0.002 0.393,0.001 0.391,-0C0.389,-0.001 0.387,-0.002 0.386,-0.004C0.385,-0.006 0.384,-0.007 0.384,-0.01L0.384,-0.073C0.361,-0.048 0.337,-0.028 0.312,-0.013C0.286,0.001 0.259,0.008 0.229,0.008C0.198,0.008 0.17,0.002 0.148,-0.01C0.125,-0.023 0.107,-0.039 0.093,-0.061C0.079,-0.082 0.069,-0.107 0.062,-0.135C0.056,-0.163 0.052,-0.194 0.052,-0.226C0.052,-0.263 0.056,-0.297 0.064,-0.327C0.073,-0.357 0.085,-0.383 0.101,-0.404C0.117,-0.425 0.136,-0.441 0.16,-0.453C0.183,-0.464 0.21,-0.47 0.241,-0.47C0.268,-0.47 0.292,-0.464 0.314,-0.452C0.337,-0.44 0.358,-0.423 0.38,-0.399L0.38,-0.666C0.38,-0.667 0.38,-0.669 0.381,-0.671C0.382,-0.673 0.383,-0.674 0.386,-0.675C0.388,-0.676 0.391,-0.677 0.395,-0.677C0.399,-0.678 0.403,-0.678 0.409,-0.678C0.415,-0.678 0.419,-0.678 0.423,-0.677C0.427,-0.677 0.43,-0.676 0.432,-0.675C0.434,-0.674 0.436,-0.673 0.437,-0.671C0.438,-0.669 0.438,-0.667 0.438,-0.666L0.438,-0.01ZM0.38,-0.329C0.355,-0.358 0.332,-0.381 0.309,-0.396C0.287,-0.412 0.263,-0.42 0.238,-0.42C0.216,-0.42 0.197,-0.415 0.181,-0.404C0.165,-0.393 0.152,-0.379 0.142,-0.361C0.132,-0.344 0.124,-0.324 0.12,-0.302C0.115,-0.28 0.113,-0.257 0.113,-0.234C0.113,-0.21 0.115,-0.186 0.119,-0.163C0.123,-0.14 0.129,-0.119 0.139,-0.101C0.148,-0.083 0.161,-0.069 0.176,-0.058C0.192,-0.047 0.211,-0.042 0.235,-0.042C0.247,-0.042 0.258,-0.043 0.269,-0.046C0.28,-0.05 0.292,-0.055 0.303,-0.063C0.315,-0.07 0.327,-0.08 0.34,-0.092C0.352,-0.103 0.366,-0.118 0.38,-0.136L0.38,-0.329Z" style="fill-rule:nonzero;"/>
                    </g>
                    <g transform="matrix(24.0742,0,0,86.8581,430.794,84.6218)">
                        <path d="M0.557,-0.325C0.557,-0.272 0.55,-0.225 0.537,-0.185C0.523,-0.144 0.504,-0.11 0.478,-0.083C0.451,-0.056 0.419,-0.035 0.381,-0.021C0.343,-0.007 0.297,-0 0.244,-0L0.12,-0C0.114,-0 0.108,-0.002 0.102,-0.007C0.095,-0.011 0.092,-0.019 0.092,-0.031L0.092,-0.601C0.092,-0.613 0.095,-0.621 0.102,-0.625C0.108,-0.63 0.114,-0.632 0.12,-0.632L0.252,-0.632C0.306,-0.632 0.351,-0.625 0.388,-0.61C0.425,-0.595 0.456,-0.574 0.481,-0.548C0.506,-0.521 0.525,-0.489 0.538,-0.451C0.55,-0.413 0.557,-0.371 0.557,-0.325ZM0.493,-0.322C0.493,-0.359 0.488,-0.393 0.479,-0.425C0.469,-0.456 0.455,-0.483 0.436,-0.506C0.416,-0.529 0.392,-0.546 0.362,-0.559C0.333,-0.572 0.295,-0.579 0.249,-0.579L0.152,-0.579L0.152,-0.053L0.25,-0.053C0.292,-0.053 0.329,-0.059 0.359,-0.069C0.388,-0.08 0.413,-0.096 0.433,-0.118C0.453,-0.14 0.468,-0.168 0.478,-0.202C0.488,-0.236 0.493,-0.276 0.493,-0.322Z" style="fill-rule:nonzero;"/>
                    </g>
                    <g transform="matrix(24.0742,0,0,86.8581,445.406,84.6218)">
                        <path d="M0.14,-0.01C0.14,-0.008 0.139,-0.006 0.138,-0.004C0.137,-0.003 0.136,-0.001 0.134,-0C0.131,0 0.128,0.001 0.125,0.002C0.121,0.003 0.116,0.003 0.11,0.003C0.105,0.003 0.1,0.003 0.096,0.002C0.093,0.001 0.09,0 0.087,-0C0.085,-0.001 0.084,-0.003 0.083,-0.004C0.082,-0.006 0.082,-0.008 0.082,-0.01L0.082,-0.452C0.082,-0.454 0.082,-0.455 0.083,-0.457C0.084,-0.459 0.085,-0.46 0.087,-0.461C0.09,-0.462 0.093,-0.463 0.096,-0.464C0.1,-0.464 0.105,-0.464 0.11,-0.464C0.116,-0.464 0.121,-0.464 0.125,-0.464C0.128,-0.463 0.131,-0.462 0.134,-0.461C0.136,-0.46 0.137,-0.459 0.138,-0.457C0.139,-0.455 0.14,-0.454 0.14,-0.452L0.14,-0.01ZM0.148,-0.601C0.148,-0.585 0.146,-0.574 0.14,-0.569C0.135,-0.563 0.125,-0.561 0.11,-0.561C0.096,-0.561 0.086,-0.563 0.08,-0.569C0.075,-0.574 0.072,-0.584 0.072,-0.6C0.072,-0.616 0.075,-0.626 0.081,-0.632C0.086,-0.637 0.096,-0.64 0.111,-0.64C0.125,-0.64 0.135,-0.637 0.14,-0.632C0.146,-0.627 0.148,-0.616 0.148,-0.601Z" style="fill-rule:nonzero;"/>
                    </g>
                    <g transform="matrix(24.0742,0,0,86.8581,450.719,84.6218)">
                        <path d="M0.442,-0.253C0.442,-0.242 0.439,-0.234 0.433,-0.229C0.426,-0.225 0.42,-0.223 0.415,-0.223L0.113,-0.223C0.113,-0.195 0.116,-0.171 0.121,-0.148C0.127,-0.126 0.136,-0.107 0.148,-0.092C0.16,-0.076 0.176,-0.064 0.196,-0.055C0.216,-0.047 0.241,-0.042 0.27,-0.042C0.29,-0.042 0.308,-0.044 0.325,-0.048C0.341,-0.051 0.355,-0.055 0.367,-0.06C0.379,-0.064 0.389,-0.068 0.396,-0.072C0.404,-0.075 0.409,-0.077 0.413,-0.077C0.415,-0.077 0.416,-0.077 0.418,-0.076C0.42,-0.075 0.421,-0.073 0.422,-0.071C0.423,-0.069 0.424,-0.066 0.424,-0.063C0.425,-0.06 0.425,-0.056 0.425,-0.051C0.425,-0.049 0.425,-0.046 0.424,-0.044C0.424,-0.042 0.424,-0.04 0.423,-0.038C0.423,-0.037 0.422,-0.035 0.421,-0.033C0.42,-0.032 0.419,-0.03 0.417,-0.028C0.415,-0.027 0.41,-0.024 0.402,-0.02C0.393,-0.016 0.382,-0.012 0.369,-0.008C0.355,-0.003 0.339,0 0.321,0.003C0.303,0.007 0.284,0.008 0.263,0.008C0.229,0.008 0.198,0.003 0.172,-0.007C0.146,-0.017 0.123,-0.032 0.105,-0.052C0.088,-0.073 0.074,-0.097 0.065,-0.127C0.055,-0.157 0.051,-0.191 0.051,-0.23C0.051,-0.267 0.056,-0.301 0.065,-0.331C0.075,-0.36 0.089,-0.385 0.106,-0.406C0.124,-0.427 0.146,-0.442 0.171,-0.453C0.196,-0.464 0.224,-0.47 0.255,-0.47C0.289,-0.47 0.317,-0.464 0.34,-0.453C0.364,-0.442 0.383,-0.427 0.398,-0.408C0.413,-0.39 0.424,-0.368 0.431,-0.343C0.438,-0.319 0.442,-0.292 0.442,-0.265L0.442,-0.253ZM0.382,-0.271C0.383,-0.317 0.372,-0.354 0.35,-0.38C0.327,-0.407 0.294,-0.42 0.251,-0.42C0.229,-0.42 0.21,-0.416 0.193,-0.407C0.176,-0.399 0.162,-0.388 0.151,-0.375C0.139,-0.361 0.13,-0.345 0.124,-0.327C0.118,-0.309 0.114,-0.29 0.113,-0.271L0.382,-0.271Z" style="fill-rule:nonzero;"/>
                    </g>
                    <g transform="matrix(24.0742,0,0,86.8581,462.615,84.6218)">
                        <path d="M0.467,-0.237C0.467,-0.2 0.463,-0.166 0.455,-0.135C0.447,-0.105 0.434,-0.079 0.418,-0.058C0.402,-0.037 0.382,-0.021 0.358,-0.009C0.335,0.003 0.307,0.008 0.277,0.008C0.264,0.008 0.252,0.007 0.24,0.004C0.229,0.001 0.218,-0.003 0.207,-0.009C0.196,-0.015 0.185,-0.022 0.174,-0.031C0.163,-0.04 0.152,-0.05 0.14,-0.063L0.14,0.166C0.14,0.167 0.139,0.169 0.138,0.171C0.137,0.173 0.136,0.174 0.134,0.175C0.131,0.176 0.128,0.177 0.125,0.177C0.121,0.178 0.116,0.178 0.11,0.178C0.105,0.178 0.1,0.178 0.096,0.177C0.093,0.177 0.09,0.176 0.087,0.175C0.085,0.174 0.084,0.173 0.083,0.171C0.082,0.169 0.082,0.167 0.082,0.166L0.082,-0.452C0.082,-0.454 0.082,-0.456 0.083,-0.458C0.084,-0.459 0.085,-0.46 0.087,-0.461C0.089,-0.462 0.092,-0.463 0.095,-0.464C0.099,-0.464 0.103,-0.464 0.108,-0.464C0.113,-0.464 0.117,-0.464 0.12,-0.464C0.123,-0.463 0.126,-0.462 0.128,-0.461C0.131,-0.46 0.132,-0.459 0.133,-0.458C0.134,-0.456 0.135,-0.454 0.135,-0.452L0.135,-0.388C0.148,-0.402 0.161,-0.414 0.174,-0.424C0.186,-0.434 0.199,-0.443 0.211,-0.45C0.223,-0.457 0.236,-0.462 0.249,-0.465C0.262,-0.468 0.276,-0.47 0.291,-0.47C0.322,-0.47 0.35,-0.464 0.372,-0.451C0.395,-0.439 0.413,-0.423 0.427,-0.401C0.441,-0.38 0.451,-0.356 0.458,-0.327C0.464,-0.299 0.467,-0.269 0.467,-0.237ZM0.406,-0.228C0.406,-0.253 0.404,-0.277 0.4,-0.3C0.396,-0.323 0.39,-0.343 0.381,-0.361C0.371,-0.379 0.359,-0.393 0.344,-0.404C0.328,-0.415 0.309,-0.42 0.285,-0.42C0.273,-0.42 0.262,-0.418 0.251,-0.415C0.24,-0.412 0.228,-0.406 0.216,-0.399C0.205,-0.391 0.192,-0.382 0.18,-0.37C0.167,-0.358 0.154,-0.343 0.14,-0.326L0.14,-0.133C0.164,-0.104 0.187,-0.081 0.21,-0.065C0.232,-0.049 0.255,-0.042 0.28,-0.042C0.302,-0.042 0.322,-0.047 0.338,-0.058C0.354,-0.069 0.367,-0.083 0.377,-0.101C0.387,-0.119 0.394,-0.139 0.399,-0.161C0.404,-0.183 0.406,-0.206 0.406,-0.228Z" style="fill-rule:nonzero;"/>
                    </g>
                    <g transform="matrix(24.0742,0,0,86.8581,475.122,84.6218)">
                        <path d="M0.44,-0.01C0.44,-0.008 0.439,-0.006 0.438,-0.004C0.438,-0.003 0.436,-0.001 0.434,-0C0.432,0 0.429,0.001 0.425,0.002C0.421,0.003 0.417,0.003 0.411,0.003C0.405,0.003 0.4,0.003 0.397,0.002C0.393,0.001 0.39,0 0.388,-0C0.386,-0.001 0.384,-0.003 0.383,-0.004C0.382,-0.006 0.382,-0.008 0.382,-0.01L0.382,-0.272C0.382,-0.299 0.38,-0.322 0.375,-0.339C0.371,-0.356 0.365,-0.37 0.356,-0.383C0.348,-0.395 0.337,-0.404 0.324,-0.411C0.311,-0.418 0.295,-0.421 0.278,-0.421C0.255,-0.421 0.233,-0.413 0.21,-0.397C0.188,-0.381 0.164,-0.358 0.14,-0.327L0.14,-0.01C0.14,-0.008 0.139,-0.006 0.138,-0.004C0.137,-0.003 0.136,-0.001 0.134,-0C0.131,0 0.128,0.001 0.125,0.002C0.121,0.003 0.116,0.003 0.11,0.003C0.105,0.003 0.1,0.003 0.096,0.002C0.093,0.001 0.09,0 0.087,-0C0.085,-0.001 0.084,-0.003 0.083,-0.004C0.082,-0.006 0.082,-0.008 0.082,-0.01L0.082,-0.668C0.082,-0.67 0.082,-0.672 0.083,-0.673C0.084,-0.675 0.085,-0.676 0.087,-0.677C0.09,-0.679 0.093,-0.679 0.096,-0.68C0.1,-0.68 0.105,-0.681 0.11,-0.681C0.116,-0.681 0.121,-0.68 0.125,-0.68C0.128,-0.679 0.131,-0.679 0.134,-0.677C0.136,-0.676 0.137,-0.675 0.138,-0.673C0.139,-0.672 0.14,-0.67 0.14,-0.668L0.14,-0.392C0.164,-0.419 0.188,-0.438 0.212,-0.451C0.236,-0.463 0.26,-0.47 0.284,-0.47C0.313,-0.47 0.338,-0.465 0.357,-0.455C0.377,-0.445 0.393,-0.432 0.406,-0.416C0.418,-0.399 0.427,-0.38 0.432,-0.357C0.437,-0.335 0.44,-0.309 0.44,-0.277L0.44,-0.01Z" style="fill-rule:nonzero;"/>
                    </g>
                    <g transform="matrix(24.0742,0,0,86.8581,487.63,84.6218)">
                        <path d="M0.473,-0.235C0.473,-0.2 0.468,-0.168 0.459,-0.138C0.45,-0.109 0.436,-0.083 0.418,-0.061C0.4,-0.039 0.378,-0.022 0.351,-0.01C0.324,0.002 0.292,0.008 0.256,0.008C0.222,0.008 0.192,0.003 0.166,-0.008C0.14,-0.019 0.118,-0.035 0.101,-0.055C0.083,-0.075 0.07,-0.1 0.062,-0.129C0.053,-0.158 0.049,-0.191 0.049,-0.227C0.049,-0.262 0.053,-0.295 0.062,-0.324C0.071,-0.354 0.085,-0.379 0.103,-0.401C0.121,-0.423 0.143,-0.44 0.17,-0.452C0.197,-0.464 0.229,-0.47 0.265,-0.47C0.3,-0.47 0.33,-0.464 0.356,-0.454C0.382,-0.443 0.403,-0.427 0.42,-0.407C0.438,-0.387 0.451,-0.362 0.459,-0.333C0.468,-0.304 0.473,-0.271 0.473,-0.235ZM0.411,-0.23C0.411,-0.255 0.409,-0.279 0.404,-0.302C0.399,-0.325 0.391,-0.345 0.379,-0.362C0.368,-0.379 0.353,-0.393 0.333,-0.404C0.314,-0.414 0.29,-0.419 0.262,-0.419C0.235,-0.419 0.213,-0.414 0.193,-0.405C0.174,-0.395 0.158,-0.382 0.146,-0.365C0.134,-0.349 0.125,-0.329 0.119,-0.306C0.113,-0.283 0.11,-0.259 0.11,-0.232C0.11,-0.207 0.113,-0.183 0.118,-0.16C0.123,-0.137 0.131,-0.117 0.142,-0.1C0.153,-0.082 0.169,-0.069 0.188,-0.059C0.207,-0.049 0.231,-0.043 0.26,-0.043C0.286,-0.043 0.309,-0.048 0.328,-0.058C0.347,-0.067 0.363,-0.08 0.375,-0.097C0.387,-0.113 0.396,-0.133 0.402,-0.156C0.408,-0.179 0.411,-0.203 0.411,-0.23Z" style="fill-rule:nonzero;"/>
                    </g>
                    <g transform="matrix(24.0742,0,0,86.8581,500.184,84.6218)">
                        <path d="M0.14,-0.01C0.14,-0.008 0.139,-0.006 0.138,-0.004C0.137,-0.003 0.136,-0.001 0.134,-0C0.131,0 0.128,0.001 0.125,0.002C0.121,0.003 0.116,0.003 0.11,0.003C0.105,0.003 0.1,0.003 0.096,0.002C0.093,0.001 0.09,0 0.087,-0C0.085,-0.001 0.084,-0.003 0.083,-0.004C0.082,-0.006 0.082,-0.008 0.082,-0.01L0.082,-0.668C0.082,-0.67 0.082,-0.672 0.083,-0.673C0.084,-0.675 0.085,-0.676 0.087,-0.677C0.09,-0.679 0.093,-0.679 0.096,-0.68C0.1,-0.68 0.105,-0.681 0.11,-0.681C0.116,-0.681 0.121,-0.68 0.125,-0.68C0.128,-0.679 0.131,-0.679 0.134,-0.677C0.136,-0.676 0.137,-0.675 0.138,-0.673C0.139,-0.672 0.14,-0.67 0.14,-0.668L0.14,-0.01Z" style="fill-rule:nonzero;"/>
                    </g>
                    <g transform="matrix(24.0742,0,0,86.8581,505.497,84.6218)">
                        <path d="M0.349,-0.025C0.349,-0.021 0.348,-0.017 0.347,-0.014C0.347,-0.011 0.346,-0.008 0.344,-0.006C0.343,-0.004 0.341,-0.002 0.339,-0.001C0.337,-0 0.335,-0 0.333,-0L0.07,-0C0.064,-0 0.059,-0.002 0.055,-0.006C0.051,-0.01 0.049,-0.016 0.049,-0.025L0.049,-0.039C0.049,-0.043 0.049,-0.046 0.05,-0.049C0.05,-0.052 0.051,-0.055 0.053,-0.058C0.054,-0.061 0.056,-0.065 0.058,-0.069C0.06,-0.072 0.063,-0.077 0.066,-0.082L0.276,-0.411L0.07,-0.411C0.065,-0.411 0.062,-0.413 0.059,-0.417C0.056,-0.421 0.054,-0.428 0.054,-0.437C0.054,-0.441 0.055,-0.444 0.055,-0.448C0.056,-0.451 0.057,-0.454 0.059,-0.456C0.06,-0.458 0.062,-0.459 0.063,-0.46C0.065,-0.461 0.068,-0.462 0.07,-0.462L0.314,-0.462C0.317,-0.462 0.32,-0.461 0.322,-0.46C0.325,-0.459 0.327,-0.458 0.329,-0.456C0.331,-0.454 0.332,-0.451 0.333,-0.448C0.334,-0.445 0.335,-0.441 0.335,-0.437L0.335,-0.425C0.335,-0.422 0.335,-0.419 0.334,-0.416C0.334,-0.412 0.333,-0.409 0.332,-0.406C0.33,-0.402 0.328,-0.398 0.326,-0.394C0.324,-0.39 0.321,-0.386 0.318,-0.38L0.108,-0.051L0.333,-0.051C0.335,-0.051 0.337,-0.05 0.339,-0.049C0.341,-0.048 0.343,-0.047 0.344,-0.045C0.346,-0.043 0.347,-0.04 0.347,-0.037C0.348,-0.033 0.349,-0.03 0.349,-0.025Z" style="fill-rule:nonzero;"/>
                    </g>
                    <g transform="matrix(24.0742,0,0,86.8581,514.972,84.6218)">
                        <path d="M0.27,-0.247C0.27,-0.238 0.268,-0.231 0.266,-0.228C0.263,-0.224 0.26,-0.223 0.255,-0.223L0.051,-0.223C0.047,-0.223 0.043,-0.224 0.04,-0.228C0.038,-0.232 0.036,-0.238 0.036,-0.247C0.036,-0.256 0.038,-0.263 0.04,-0.266C0.043,-0.27 0.047,-0.271 0.051,-0.271L0.255,-0.271C0.257,-0.271 0.259,-0.271 0.261,-0.27C0.263,-0.269 0.264,-0.268 0.266,-0.266C0.267,-0.264 0.268,-0.262 0.269,-0.259C0.269,-0.255 0.27,-0.252 0.27,-0.247Z" style="fill-rule:nonzero;"/>
                    </g>
                    <g transform="matrix(24.0742,0,0,86.8581,522.342,84.6218)">
                        <path d="M0.546,-0.029C0.546,-0.023 0.545,-0.018 0.543,-0.014C0.541,-0.01 0.539,-0.007 0.536,-0.005C0.534,-0.002 0.531,-0 0.527,0C0.524,0.001 0.521,0.002 0.518,0.002L0.505,0.002C0.499,0.002 0.493,0.001 0.488,-0C0.482,-0.002 0.477,-0.005 0.472,-0.009C0.467,-0.013 0.462,-0.019 0.457,-0.025C0.452,-0.032 0.446,-0.041 0.44,-0.052L0.217,-0.446C0.206,-0.465 0.195,-0.485 0.184,-0.506C0.173,-0.526 0.162,-0.546 0.152,-0.565L0.151,-0.565C0.152,-0.541 0.152,-0.517 0.152,-0.492L0.152,-0.01C0.152,-0.008 0.151,-0.006 0.15,-0.004C0.149,-0.003 0.148,-0.001 0.146,-0C0.143,0 0.14,0.001 0.136,0.002C0.133,0.003 0.128,0.003 0.122,0.003C0.117,0.003 0.112,0.003 0.108,0.002C0.104,0.001 0.101,0 0.099,-0C0.096,-0.001 0.095,-0.003 0.094,-0.004C0.093,-0.006 0.092,-0.008 0.092,-0.01L0.092,-0.601C0.092,-0.613 0.095,-0.621 0.102,-0.625C0.108,-0.63 0.114,-0.632 0.12,-0.632L0.144,-0.632C0.152,-0.632 0.158,-0.631 0.164,-0.63C0.169,-0.629 0.174,-0.626 0.178,-0.623C0.182,-0.62 0.186,-0.616 0.19,-0.61C0.194,-0.604 0.199,-0.597 0.204,-0.588L0.374,-0.286C0.385,-0.267 0.395,-0.249 0.405,-0.232C0.414,-0.214 0.424,-0.197 0.433,-0.18C0.442,-0.164 0.451,-0.147 0.46,-0.131C0.469,-0.115 0.478,-0.098 0.486,-0.082L0.487,-0.082C0.486,-0.109 0.486,-0.137 0.486,-0.167L0.486,-0.62C0.486,-0.622 0.487,-0.624 0.488,-0.625C0.489,-0.627 0.49,-0.628 0.493,-0.63C0.495,-0.631 0.498,-0.632 0.502,-0.632C0.505,-0.633 0.51,-0.633 0.516,-0.633C0.521,-0.633 0.526,-0.633 0.53,-0.632C0.534,-0.632 0.537,-0.631 0.539,-0.63C0.541,-0.628 0.543,-0.627 0.544,-0.625C0.545,-0.624 0.546,-0.622 0.546,-0.62L0.546,-0.029Z" style="fill-rule:nonzero;"/>
                    </g>
                    <g transform="matrix(24.0742,0,0,86.8581,537.706,84.6218)">
                        <path d="M0.14,-0.01C0.14,-0.008 0.139,-0.006 0.138,-0.004C0.137,-0.003 0.136,-0.001 0.134,-0C0.131,0 0.128,0.001 0.125,0.002C0.121,0.003 0.116,0.003 0.11,0.003C0.105,0.003 0.1,0.003 0.096,0.002C0.093,0.001 0.09,0 0.087,-0C0.085,-0.001 0.084,-0.003 0.083,-0.004C0.082,-0.006 0.082,-0.008 0.082,-0.01L0.082,-0.452C0.082,-0.454 0.082,-0.455 0.083,-0.457C0.084,-0.459 0.085,-0.46 0.087,-0.461C0.09,-0.462 0.093,-0.463 0.096,-0.464C0.1,-0.464 0.105,-0.464 0.11,-0.464C0.116,-0.464 0.121,-0.464 0.125,-0.464C0.128,-0.463 0.131,-0.462 0.134,-0.461C0.136,-0.46 0.137,-0.459 0.138,-0.457C0.139,-0.455 0.14,-0.454 0.14,-0.452L0.14,-0.01ZM0.148,-0.601C0.148,-0.585 0.146,-0.574 0.14,-0.569C0.135,-0.563 0.125,-0.561 0.11,-0.561C0.096,-0.561 0.086,-0.563 0.08,-0.569C0.075,-0.574 0.072,-0.584 0.072,-0.6C0.072,-0.616 0.075,-0.626 0.081,-0.632C0.086,-0.637 0.096,-0.64 0.111,-0.64C0.125,-0.64 0.135,-0.637 0.14,-0.632C0.146,-0.627 0.148,-0.616 0.148,-0.601Z" style="fill-rule:nonzero;"/>
                    </g>
                    <g transform="matrix(24.0742,0,0,86.8581,543.019,84.6218)">
                        <path d="M0.442,-0.253C0.442,-0.242 0.439,-0.234 0.433,-0.229C0.426,-0.225 0.42,-0.223 0.415,-0.223L0.113,-0.223C0.113,-0.195 0.116,-0.171 0.121,-0.148C0.127,-0.126 0.136,-0.107 0.148,-0.092C0.16,-0.076 0.176,-0.064 0.196,-0.055C0.216,-0.047 0.241,-0.042 0.27,-0.042C0.29,-0.042 0.308,-0.044 0.325,-0.048C0.341,-0.051 0.355,-0.055 0.367,-0.06C0.379,-0.064 0.389,-0.068 0.396,-0.072C0.404,-0.075 0.409,-0.077 0.413,-0.077C0.415,-0.077 0.416,-0.077 0.418,-0.076C0.42,-0.075 0.421,-0.073 0.422,-0.071C0.423,-0.069 0.424,-0.066 0.424,-0.063C0.425,-0.06 0.425,-0.056 0.425,-0.051C0.425,-0.049 0.425,-0.046 0.424,-0.044C0.424,-0.042 0.424,-0.04 0.423,-0.038C0.423,-0.037 0.422,-0.035 0.421,-0.033C0.42,-0.032 0.419,-0.03 0.417,-0.028C0.415,-0.027 0.41,-0.024 0.402,-0.02C0.393,-0.016 0.382,-0.012 0.369,-0.008C0.355,-0.003 0.339,0 0.321,0.003C0.303,0.007 0.284,0.008 0.263,0.008C0.229,0.008 0.198,0.003 0.172,-0.007C0.146,-0.017 0.123,-0.032 0.105,-0.052C0.088,-0.073 0.074,-0.097 0.065,-0.127C0.055,-0.157 0.051,-0.191 0.051,-0.23C0.051,-0.267 0.056,-0.301 0.065,-0.331C0.075,-0.36 0.089,-0.385 0.106,-0.406C0.124,-0.427 0.146,-0.442 0.171,-0.453C0.196,-0.464 0.224,-0.47 0.255,-0.47C0.289,-0.47 0.317,-0.464 0.34,-0.453C0.364,-0.442 0.383,-0.427 0.398,-0.408C0.413,-0.39 0.424,-0.368 0.431,-0.343C0.438,-0.319 0.442,-0.292 0.442,-0.265L0.442,-0.253ZM0.382,-0.271C0.383,-0.317 0.372,-0.354 0.35,-0.38C0.327,-0.407 0.294,-0.42 0.251,-0.42C0.229,-0.42 0.21,-0.416 0.193,-0.407C0.176,-0.399 0.162,-0.388 0.151,-0.375C0.139,-0.361 0.13,-0.345 0.124,-0.327C0.118,-0.309 0.114,-0.29 0.113,-0.271L0.382,-0.271Z" style="fill-rule:nonzero;"/>
                    </g>
                    <g transform="matrix(24.0742,0,0,86.8581,554.915,84.6218)">
                        <path d="M0.44,-0.01C0.44,-0.008 0.439,-0.006 0.438,-0.004C0.438,-0.003 0.436,-0.001 0.434,-0C0.432,0 0.429,0.001 0.425,0.002C0.421,0.003 0.417,0.003 0.411,0.003C0.405,0.003 0.4,0.003 0.397,0.002C0.393,0.001 0.39,0 0.388,-0C0.386,-0.001 0.384,-0.003 0.383,-0.004C0.382,-0.006 0.382,-0.008 0.382,-0.01L0.382,-0.272C0.382,-0.299 0.38,-0.322 0.375,-0.339C0.371,-0.356 0.365,-0.37 0.356,-0.383C0.348,-0.395 0.337,-0.404 0.324,-0.411C0.311,-0.418 0.295,-0.421 0.278,-0.421C0.255,-0.421 0.233,-0.413 0.21,-0.397C0.188,-0.381 0.164,-0.358 0.14,-0.327L0.14,-0.01C0.14,-0.008 0.139,-0.006 0.138,-0.004C0.137,-0.003 0.136,-0.001 0.134,-0C0.131,0 0.128,0.001 0.125,0.002C0.121,0.003 0.116,0.003 0.11,0.003C0.105,0.003 0.1,0.003 0.096,0.002C0.093,0.001 0.09,0 0.087,-0C0.085,-0.001 0.084,-0.003 0.083,-0.004C0.082,-0.006 0.082,-0.008 0.082,-0.01L0.082,-0.452C0.082,-0.454 0.082,-0.455 0.083,-0.457C0.084,-0.459 0.085,-0.46 0.087,-0.461C0.09,-0.462 0.093,-0.463 0.096,-0.464C0.099,-0.464 0.104,-0.464 0.109,-0.464C0.115,-0.464 0.119,-0.464 0.123,-0.464C0.127,-0.463 0.129,-0.462 0.131,-0.461C0.133,-0.46 0.135,-0.459 0.135,-0.457C0.136,-0.455 0.137,-0.454 0.137,-0.452L0.137,-0.389C0.162,-0.417 0.187,-0.438 0.211,-0.451C0.236,-0.463 0.26,-0.47 0.284,-0.47C0.313,-0.47 0.338,-0.465 0.357,-0.455C0.377,-0.445 0.393,-0.432 0.406,-0.416C0.418,-0.399 0.427,-0.38 0.432,-0.357C0.437,-0.335 0.44,-0.309 0.44,-0.277L0.44,-0.01Z" style="fill-rule:nonzero;"/>
                    </g>
                    <g transform="matrix(24.0742,0,0,86.8581,567.422,84.6218)">
                        <path d="M0.467,-0.236C0.467,-0.199 0.463,-0.165 0.455,-0.135C0.447,-0.104 0.435,-0.079 0.419,-0.058C0.403,-0.036 0.383,-0.02 0.359,-0.009C0.336,0.003 0.308,0.008 0.278,0.008C0.264,0.008 0.252,0.007 0.24,0.004C0.228,0.001 0.217,-0.003 0.206,-0.009C0.195,-0.015 0.184,-0.023 0.172,-0.033C0.161,-0.042 0.148,-0.054 0.135,-0.067L0.135,-0.01C0.135,-0.007 0.134,-0.006 0.133,-0.004C0.132,-0.002 0.131,-0.001 0.128,-0C0.126,0.001 0.123,0.002 0.12,0.002C0.117,0.003 0.113,0.003 0.108,0.003C0.103,0.003 0.099,0.003 0.095,0.002C0.092,0.002 0.089,0.001 0.087,-0C0.085,-0.001 0.084,-0.002 0.083,-0.004C0.082,-0.006 0.082,-0.007 0.082,-0.01L0.082,-0.668C0.082,-0.67 0.082,-0.672 0.083,-0.673C0.084,-0.675 0.085,-0.676 0.087,-0.677C0.09,-0.679 0.093,-0.679 0.096,-0.68C0.1,-0.68 0.105,-0.681 0.11,-0.681C0.116,-0.681 0.121,-0.68 0.125,-0.68C0.128,-0.679 0.131,-0.679 0.134,-0.677C0.136,-0.676 0.137,-0.675 0.138,-0.673C0.139,-0.672 0.14,-0.67 0.14,-0.668L0.14,-0.392C0.154,-0.407 0.167,-0.419 0.18,-0.429C0.192,-0.439 0.205,-0.447 0.217,-0.453C0.229,-0.459 0.241,-0.463 0.253,-0.466C0.265,-0.468 0.277,-0.47 0.29,-0.47C0.321,-0.47 0.349,-0.464 0.371,-0.451C0.394,-0.439 0.412,-0.422 0.427,-0.401C0.441,-0.38 0.451,-0.355 0.458,-0.327C0.464,-0.298 0.467,-0.268 0.467,-0.236ZM0.406,-0.227C0.406,-0.252 0.404,-0.276 0.4,-0.299C0.396,-0.322 0.39,-0.342 0.38,-0.36C0.371,-0.378 0.358,-0.393 0.343,-0.404C0.327,-0.414 0.308,-0.42 0.284,-0.42C0.273,-0.42 0.261,-0.418 0.25,-0.415C0.239,-0.412 0.228,-0.406 0.216,-0.399C0.204,-0.391 0.192,-0.382 0.179,-0.37C0.167,-0.358 0.154,-0.343 0.14,-0.326L0.14,-0.133C0.164,-0.104 0.188,-0.081 0.21,-0.065C0.233,-0.049 0.256,-0.042 0.281,-0.042C0.303,-0.042 0.322,-0.047 0.338,-0.058C0.354,-0.069 0.367,-0.083 0.377,-0.101C0.388,-0.118 0.395,-0.138 0.399,-0.16C0.404,-0.182 0.406,-0.205 0.406,-0.227Z" style="fill-rule:nonzero;"/>
                    </g>
                    <g transform="matrix(24.0742,0,0,86.8581,579.929,84.6218)">
                        <path d="M0.438,-0.01C0.438,-0.008 0.438,-0.006 0.437,-0.004C0.436,-0.003 0.434,-0.001 0.432,-0C0.43,0 0.427,0.001 0.423,0.002C0.42,0.003 0.415,0.003 0.41,0.003C0.404,0.003 0.4,0.003 0.396,0.002C0.392,0.001 0.39,0 0.388,-0C0.386,-0.001 0.384,-0.003 0.384,-0.004C0.383,-0.006 0.382,-0.008 0.382,-0.01L0.382,-0.072C0.357,-0.044 0.332,-0.023 0.308,-0.011C0.284,0.002 0.259,0.008 0.235,0.008C0.206,0.008 0.182,0.003 0.162,-0.006C0.142,-0.016 0.126,-0.029 0.114,-0.046C0.102,-0.063 0.093,-0.082 0.088,-0.104C0.082,-0.127 0.08,-0.153 0.08,-0.185L0.08,-0.452C0.08,-0.454 0.08,-0.455 0.081,-0.457C0.082,-0.459 0.083,-0.46 0.085,-0.461C0.088,-0.462 0.091,-0.463 0.094,-0.464C0.098,-0.464 0.103,-0.464 0.108,-0.464C0.114,-0.464 0.119,-0.464 0.123,-0.464C0.127,-0.463 0.129,-0.462 0.132,-0.461C0.134,-0.46 0.135,-0.459 0.136,-0.457C0.137,-0.455 0.138,-0.454 0.138,-0.452L0.138,-0.19C0.138,-0.163 0.14,-0.14 0.144,-0.123C0.148,-0.106 0.155,-0.091 0.163,-0.079C0.172,-0.067 0.182,-0.057 0.196,-0.051C0.209,-0.044 0.224,-0.041 0.242,-0.041C0.264,-0.041 0.287,-0.049 0.309,-0.064C0.331,-0.08 0.355,-0.104 0.38,-0.135L0.38,-0.452C0.38,-0.454 0.38,-0.455 0.381,-0.457C0.382,-0.459 0.383,-0.46 0.386,-0.461C0.388,-0.462 0.391,-0.463 0.395,-0.464C0.399,-0.464 0.403,-0.464 0.409,-0.464C0.415,-0.464 0.419,-0.464 0.423,-0.464C0.427,-0.463 0.43,-0.462 0.432,-0.461C0.434,-0.46 0.436,-0.459 0.437,-0.457C0.438,-0.455 0.438,-0.454 0.438,-0.452L0.438,-0.01Z" style="fill-rule:nonzero;"/>
                    </g>
                    <g transform="matrix(24.0742,0,0,86.8581,592.437,84.6218)">
                        <path d="M0.327,-0.429C0.327,-0.424 0.326,-0.42 0.326,-0.417C0.326,-0.413 0.325,-0.411 0.324,-0.408C0.324,-0.406 0.323,-0.405 0.322,-0.404C0.32,-0.402 0.319,-0.402 0.317,-0.402C0.314,-0.402 0.311,-0.403 0.307,-0.404C0.303,-0.406 0.298,-0.407 0.293,-0.409C0.288,-0.41 0.282,-0.412 0.276,-0.413C0.27,-0.415 0.263,-0.416 0.255,-0.416C0.247,-0.416 0.238,-0.414 0.229,-0.41C0.221,-0.406 0.212,-0.4 0.203,-0.392C0.194,-0.384 0.184,-0.373 0.174,-0.359C0.163,-0.345 0.152,-0.328 0.14,-0.309L0.14,-0.01C0.14,-0.008 0.139,-0.006 0.138,-0.004C0.137,-0.003 0.136,-0.001 0.134,-0C0.131,0 0.128,0.001 0.125,0.002C0.121,0.003 0.116,0.003 0.11,0.003C0.105,0.003 0.1,0.003 0.096,0.002C0.093,0.001 0.09,0 0.087,-0C0.085,-0.001 0.084,-0.003 0.083,-0.004C0.082,-0.006 0.082,-0.008 0.082,-0.01L0.082,-0.452C0.082,-0.454 0.082,-0.455 0.083,-0.457C0.084,-0.459 0.085,-0.46 0.087,-0.461C0.09,-0.462 0.093,-0.463 0.096,-0.464C0.099,-0.464 0.104,-0.464 0.109,-0.464C0.115,-0.464 0.119,-0.464 0.123,-0.464C0.127,-0.463 0.129,-0.462 0.131,-0.461C0.133,-0.46 0.135,-0.459 0.135,-0.457C0.136,-0.455 0.137,-0.454 0.137,-0.452L0.137,-0.382C0.149,-0.4 0.161,-0.415 0.172,-0.427C0.183,-0.438 0.193,-0.447 0.203,-0.453C0.212,-0.46 0.222,-0.464 0.231,-0.466C0.24,-0.469 0.25,-0.47 0.26,-0.47C0.264,-0.47 0.269,-0.469 0.274,-0.469C0.28,-0.469 0.286,-0.468 0.292,-0.466C0.299,-0.465 0.304,-0.463 0.309,-0.462C0.314,-0.46 0.318,-0.458 0.32,-0.457C0.322,-0.455 0.323,-0.454 0.324,-0.453C0.324,-0.452 0.325,-0.45 0.325,-0.448C0.326,-0.447 0.326,-0.444 0.326,-0.441C0.327,-0.438 0.327,-0.434 0.327,-0.429Z" style="fill-rule:nonzero;"/>
                    </g>
                    <g transform="matrix(24.0742,0,0,86.8581,600.383,84.6218)">
                        <path d="M0.436,-0.437C0.436,-0.428 0.434,-0.422 0.431,-0.418C0.428,-0.414 0.424,-0.413 0.42,-0.413L0.35,-0.413C0.364,-0.399 0.373,-0.383 0.379,-0.367C0.384,-0.351 0.387,-0.333 0.387,-0.315C0.387,-0.29 0.383,-0.268 0.375,-0.248C0.367,-0.229 0.355,-0.212 0.341,-0.198C0.326,-0.185 0.309,-0.175 0.289,-0.167C0.268,-0.16 0.246,-0.157 0.222,-0.157C0.202,-0.157 0.183,-0.16 0.165,-0.165C0.147,-0.171 0.133,-0.177 0.123,-0.186C0.117,-0.179 0.111,-0.172 0.107,-0.163C0.103,-0.155 0.101,-0.145 0.101,-0.134C0.101,-0.121 0.107,-0.111 0.118,-0.103C0.13,-0.094 0.146,-0.09 0.165,-0.089L0.284,-0.084C0.304,-0.083 0.323,-0.081 0.341,-0.076C0.359,-0.071 0.374,-0.064 0.388,-0.054C0.401,-0.044 0.412,-0.033 0.419,-0.019C0.427,-0.005 0.431,0.012 0.431,0.031C0.431,0.05 0.427,0.069 0.419,0.087C0.411,0.105 0.399,0.121 0.382,0.134C0.365,0.148 0.344,0.158 0.318,0.166C0.292,0.174 0.261,0.178 0.225,0.178C0.19,0.178 0.161,0.175 0.136,0.169C0.112,0.163 0.092,0.155 0.077,0.144C0.061,0.134 0.05,0.121 0.043,0.107C0.036,0.093 0.033,0.077 0.033,0.061C0.033,0.049 0.034,0.038 0.037,0.028C0.039,0.018 0.043,0.009 0.049,-0C0.054,-0.01 0.061,-0.018 0.069,-0.027C0.077,-0.035 0.086,-0.044 0.096,-0.053C0.08,-0.061 0.067,-0.071 0.06,-0.083C0.052,-0.096 0.048,-0.108 0.048,-0.122C0.048,-0.142 0.052,-0.16 0.06,-0.176C0.067,-0.191 0.077,-0.205 0.088,-0.217C0.078,-0.23 0.071,-0.243 0.066,-0.258C0.061,-0.272 0.058,-0.29 0.058,-0.311C0.058,-0.335 0.062,-0.358 0.07,-0.377C0.078,-0.397 0.09,-0.414 0.104,-0.427C0.119,-0.441 0.136,-0.451 0.156,-0.459C0.176,-0.466 0.199,-0.47 0.223,-0.47C0.235,-0.47 0.247,-0.469 0.259,-0.468C0.27,-0.466 0.28,-0.464 0.29,-0.462L0.42,-0.462C0.425,-0.462 0.429,-0.46 0.432,-0.456C0.434,-0.451 0.436,-0.445 0.436,-0.437ZM0.327,-0.314C0.327,-0.347 0.317,-0.374 0.299,-0.393C0.281,-0.411 0.255,-0.421 0.221,-0.421C0.203,-0.421 0.188,-0.418 0.175,-0.412C0.162,-0.406 0.152,-0.398 0.143,-0.388C0.135,-0.378 0.128,-0.366 0.124,-0.353C0.12,-0.34 0.118,-0.326 0.118,-0.311C0.118,-0.278 0.127,-0.252 0.145,-0.234C0.164,-0.215 0.189,-0.206 0.223,-0.206C0.24,-0.206 0.256,-0.208 0.269,-0.214C0.282,-0.22 0.293,-0.228 0.301,-0.238C0.31,-0.248 0.316,-0.26 0.32,-0.273C0.325,-0.286 0.327,-0.3 0.327,-0.314ZM0.373,0.034C0.373,0.013 0.364,-0.004 0.347,-0.015C0.33,-0.027 0.306,-0.033 0.277,-0.034L0.148,-0.038C0.137,-0.029 0.127,-0.02 0.12,-0.012C0.112,-0.004 0.106,0.004 0.102,0.011C0.097,0.019 0.094,0.027 0.093,0.034C0.091,0.041 0.09,0.049 0.09,0.056C0.09,0.08 0.102,0.098 0.127,0.111C0.151,0.123 0.185,0.129 0.228,0.129C0.255,0.129 0.278,0.127 0.297,0.121C0.315,0.116 0.33,0.109 0.341,0.1C0.353,0.091 0.361,0.081 0.366,0.07C0.371,0.058 0.373,0.047 0.373,0.034Z" style="fill-rule:nonzero;"/>
                    </g>
                </g>
                <g transform="matrix(1.92028,0,0,1.82203,108.651,-0.336899)">
                    <g transform="matrix(51.5589,0,0,41.7674,24.2111,36.3635)">
                        <path d="M0.438,-0.01C0.438,-0.007 0.438,-0.006 0.437,-0.004C0.436,-0.002 0.434,-0.001 0.432,-0C0.43,0.001 0.428,0.002 0.424,0.002C0.421,0.003 0.417,0.003 0.412,0.003C0.407,0.003 0.403,0.003 0.399,0.002C0.396,0.002 0.393,0.001 0.391,-0C0.389,-0.001 0.387,-0.002 0.386,-0.004C0.385,-0.006 0.384,-0.007 0.384,-0.01L0.384,-0.073C0.361,-0.048 0.337,-0.028 0.312,-0.013C0.286,0.001 0.259,0.008 0.229,0.008C0.198,0.008 0.17,0.002 0.148,-0.01C0.125,-0.023 0.107,-0.039 0.093,-0.061C0.079,-0.082 0.069,-0.107 0.062,-0.135C0.056,-0.163 0.052,-0.194 0.052,-0.226C0.052,-0.263 0.056,-0.297 0.064,-0.327C0.073,-0.357 0.085,-0.383 0.101,-0.404C0.117,-0.425 0.136,-0.441 0.16,-0.453C0.183,-0.464 0.21,-0.47 0.241,-0.47C0.268,-0.47 0.292,-0.464 0.314,-0.452C0.337,-0.44 0.358,-0.423 0.38,-0.399L0.38,-0.666C0.38,-0.667 0.38,-0.669 0.381,-0.671C0.382,-0.673 0.383,-0.674 0.386,-0.675C0.388,-0.676 0.391,-0.677 0.395,-0.677C0.399,-0.678 0.403,-0.678 0.409,-0.678C0.415,-0.678 0.419,-0.678 0.423,-0.677C0.427,-0.677 0.43,-0.676 0.432,-0.675C0.434,-0.674 0.436,-0.673 0.437,-0.671C0.438,-0.669 0.438,-0.667 0.438,-0.666L0.438,-0.01ZM0.38,-0.329C0.355,-0.358 0.332,-0.381 0.309,-0.396C0.287,-0.412 0.263,-0.42 0.238,-0.42C0.216,-0.42 0.197,-0.415 0.181,-0.404C0.165,-0.393 0.152,-0.379 0.142,-0.361C0.132,-0.344 0.124,-0.324 0.12,-0.302C0.115,-0.28 0.113,-0.257 0.113,-0.234C0.113,-0.21 0.115,-0.186 0.119,-0.163C0.123,-0.14 0.129,-0.119 0.139,-0.101C0.148,-0.083 0.161,-0.069 0.176,-0.058C0.192,-0.047 0.211,-0.042 0.235,-0.042C0.247,-0.042 0.258,-0.043 0.269,-0.046C0.28,-0.05 0.292,-0.055 0.303,-0.063C0.315,-0.07 0.327,-0.08 0.34,-0.092C0.352,-0.103 0.366,-0.118 0.38,-0.136L0.38,-0.329Z" style="fill-rule:nonzero;"/>
                    </g>
                    <g transform="matrix(51.5589,0,0,41.7674,51.2038,36.3635)">
                        <path d="M0.14,-0.01C0.14,-0.008 0.139,-0.006 0.138,-0.004C0.137,-0.003 0.136,-0.001 0.134,-0C0.131,0 0.128,0.001 0.125,0.002C0.121,0.003 0.116,0.003 0.11,0.003C0.105,0.003 0.1,0.003 0.096,0.002C0.093,0.001 0.09,0 0.087,-0C0.085,-0.001 0.084,-0.003 0.083,-0.004C0.082,-0.006 0.082,-0.008 0.082,-0.01L0.082,-0.452C0.082,-0.454 0.082,-0.455 0.083,-0.457C0.084,-0.459 0.085,-0.46 0.087,-0.461C0.09,-0.462 0.093,-0.463 0.096,-0.464C0.1,-0.464 0.105,-0.464 0.11,-0.464C0.116,-0.464 0.121,-0.464 0.125,-0.464C0.128,-0.463 0.131,-0.462 0.134,-0.461C0.136,-0.46 0.137,-0.459 0.138,-0.457C0.139,-0.455 0.14,-0.454 0.14,-0.452L0.14,-0.01ZM0.148,-0.601C0.148,-0.585 0.146,-0.574 0.14,-0.569C0.135,-0.563 0.125,-0.561 0.11,-0.561C0.096,-0.561 0.086,-0.563 0.08,-0.569C0.075,-0.574 0.072,-0.584 0.072,-0.6C0.072,-0.616 0.075,-0.626 0.081,-0.632C0.086,-0.637 0.096,-0.64 0.111,-0.64C0.125,-0.64 0.135,-0.637 0.14,-0.632C0.146,-0.627 0.148,-0.616 0.148,-0.601Z" style="fill-rule:nonzero;"/>
                    </g>
                    <g transform="matrix(51.5589,0,0,41.7674,62.7892,36.3635)">
                        <path d="M0.442,-0.253C0.442,-0.242 0.439,-0.234 0.433,-0.229C0.426,-0.225 0.42,-0.223 0.415,-0.223L0.113,-0.223C0.113,-0.195 0.116,-0.171 0.121,-0.148C0.127,-0.126 0.136,-0.107 0.148,-0.092C0.16,-0.076 0.176,-0.064 0.196,-0.055C0.216,-0.047 0.241,-0.042 0.27,-0.042C0.29,-0.042 0.308,-0.044 0.325,-0.048C0.341,-0.051 0.355,-0.055 0.367,-0.06C0.379,-0.064 0.389,-0.068 0.396,-0.072C0.404,-0.075 0.409,-0.077 0.413,-0.077C0.415,-0.077 0.416,-0.077 0.418,-0.076C0.42,-0.075 0.421,-0.073 0.422,-0.071C0.423,-0.069 0.424,-0.066 0.424,-0.063C0.425,-0.06 0.425,-0.056 0.425,-0.051C0.425,-0.049 0.425,-0.046 0.424,-0.044C0.424,-0.042 0.424,-0.04 0.423,-0.038C0.423,-0.037 0.422,-0.035 0.421,-0.033C0.42,-0.032 0.419,-0.03 0.417,-0.028C0.415,-0.027 0.41,-0.024 0.402,-0.02C0.393,-0.016 0.382,-0.012 0.369,-0.008C0.355,-0.003 0.339,0 0.321,0.003C0.303,0.007 0.284,0.008 0.263,0.008C0.229,0.008 0.198,0.003 0.172,-0.007C0.146,-0.017 0.123,-0.032 0.105,-0.052C0.088,-0.073 0.074,-0.097 0.065,-0.127C0.055,-0.157 0.051,-0.191 0.051,-0.23C0.051,-0.267 0.056,-0.301 0.065,-0.331C0.075,-0.36 0.089,-0.385 0.106,-0.406C0.124,-0.427 0.146,-0.442 0.171,-0.453C0.196,-0.464 0.224,-0.47 0.255,-0.47C0.289,-0.47 0.317,-0.464 0.34,-0.453C0.364,-0.442 0.383,-0.427 0.398,-0.408C0.413,-0.39 0.424,-0.368 0.431,-0.343C0.438,-0.319 0.442,-0.292 0.442,-0.265L0.442,-0.253ZM0.382,-0.271C0.383,-0.317 0.372,-0.354 0.35,-0.38C0.327,-0.407 0.294,-0.42 0.251,-0.42C0.229,-0.42 0.21,-0.416 0.193,-0.407C0.176,-0.399 0.162,-0.388 0.151,-0.375C0.139,-0.361 0.13,-0.345 0.124,-0.327C0.118,-0.309 0.114,-0.29 0.113,-0.271L0.382,-0.271Z" style="fill-rule:nonzero;"/>
                    </g>
                    <g transform="matrix(51.5589,0,0,41.7674,88.4728,36.3635)">
                        <path d="M0.073,-0L0.073,-0.716L0.342,-0.716C0.396,-0.716 0.44,-0.709 0.473,-0.694C0.506,-0.68 0.532,-0.657 0.551,-0.627C0.57,-0.597 0.579,-0.566 0.579,-0.533C0.579,-0.502 0.571,-0.473 0.554,-0.446C0.538,-0.419 0.513,-0.397 0.479,-0.381C0.522,-0.368 0.556,-0.347 0.579,-0.316C0.602,-0.285 0.614,-0.249 0.614,-0.208C0.614,-0.174 0.607,-0.143 0.593,-0.114C0.578,-0.085 0.561,-0.063 0.54,-0.047C0.519,-0.032 0.493,-0.02 0.462,-0.012C0.43,-0.004 0.392,-0 0.346,-0L0.073,-0ZM0.168,-0.415L0.323,-0.415C0.365,-0.415 0.395,-0.418 0.413,-0.423C0.437,-0.431 0.455,-0.442 0.468,-0.459C0.48,-0.476 0.486,-0.496 0.486,-0.521C0.486,-0.545 0.48,-0.566 0.469,-0.584C0.457,-0.602 0.441,-0.615 0.42,-0.621C0.399,-0.628 0.362,-0.631 0.311,-0.631L0.168,-0.631L0.168,-0.415ZM0.168,-0.084L0.346,-0.084C0.377,-0.084 0.398,-0.086 0.411,-0.088C0.432,-0.092 0.451,-0.098 0.465,-0.107C0.48,-0.117 0.492,-0.13 0.501,-0.147C0.511,-0.165 0.516,-0.185 0.516,-0.208C0.516,-0.234 0.509,-0.257 0.495,-0.277C0.481,-0.297 0.462,-0.311 0.438,-0.319C0.414,-0.327 0.379,-0.331 0.333,-0.331L0.168,-0.331L0.168,-0.084Z" style="fill-rule:nonzero;"/>
                    </g>
                    <g transform="matrix(51.5589,0,0,41.7674,123.945,36.3635)">
                        <path d="M0.404,-0.064C0.372,-0.036 0.34,-0.017 0.31,-0.005C0.28,0.006 0.248,0.012 0.213,0.012C0.156,0.012 0.113,-0.002 0.082,-0.03C0.051,-0.058 0.036,-0.093 0.036,-0.137C0.036,-0.162 0.042,-0.185 0.053,-0.206C0.065,-0.227 0.08,-0.244 0.099,-0.257C0.118,-0.27 0.139,-0.279 0.162,-0.286C0.179,-0.29 0.205,-0.295 0.24,-0.299C0.311,-0.307 0.363,-0.317 0.397,-0.329C0.397,-0.341 0.397,-0.349 0.397,-0.352C0.397,-0.388 0.389,-0.413 0.373,-0.428C0.35,-0.448 0.317,-0.458 0.272,-0.458C0.231,-0.458 0.201,-0.45 0.181,-0.436C0.161,-0.421 0.147,-0.396 0.137,-0.359L0.051,-0.371C0.059,-0.407 0.072,-0.437 0.09,-0.46C0.108,-0.482 0.134,-0.5 0.167,-0.512C0.201,-0.524 0.241,-0.53 0.285,-0.53C0.329,-0.53 0.365,-0.525 0.393,-0.515C0.421,-0.504 0.441,-0.491 0.454,-0.475C0.467,-0.46 0.476,-0.44 0.481,-0.416C0.484,-0.401 0.486,-0.374 0.486,-0.334L0.486,-0.217C0.486,-0.136 0.488,-0.084 0.491,-0.062C0.495,-0.041 0.503,-0.02 0.514,-0L0.422,-0C0.413,-0.018 0.407,-0.04 0.404,-0.064ZM0.397,-0.26C0.365,-0.247 0.317,-0.236 0.253,-0.227C0.217,-0.222 0.192,-0.216 0.177,-0.209C0.162,-0.203 0.15,-0.193 0.142,-0.181C0.134,-0.168 0.13,-0.154 0.13,-0.139C0.13,-0.116 0.139,-0.096 0.156,-0.081C0.174,-0.065 0.2,-0.057 0.234,-0.057C0.268,-0.057 0.298,-0.065 0.325,-0.079C0.351,-0.094 0.37,-0.114 0.383,-0.14C0.392,-0.16 0.397,-0.189 0.397,-0.228L0.397,-0.26Z" style="fill-rule:nonzero;"/>
                    </g>
                    <g transform="matrix(51.5589,0,0,41.7674,153.702,36.3635)">
                        <path d="M0.031,-0.155L0.118,-0.168C0.123,-0.134 0.136,-0.107 0.158,-0.088C0.181,-0.07 0.212,-0.061 0.252,-0.061C0.292,-0.061 0.322,-0.069 0.342,-0.085C0.361,-0.102 0.371,-0.121 0.371,-0.143C0.371,-0.163 0.362,-0.179 0.345,-0.19C0.333,-0.198 0.303,-0.208 0.255,-0.22C0.191,-0.236 0.146,-0.25 0.121,-0.262C0.096,-0.274 0.078,-0.29 0.065,-0.311C0.052,-0.332 0.045,-0.355 0.045,-0.381C0.045,-0.404 0.051,-0.425 0.061,-0.445C0.072,-0.465 0.086,-0.481 0.104,-0.494C0.118,-0.504 0.137,-0.513 0.16,-0.52C0.184,-0.527 0.209,-0.53 0.236,-0.53C0.277,-0.53 0.313,-0.524 0.344,-0.513C0.374,-0.501 0.397,-0.485 0.412,-0.465C0.426,-0.445 0.436,-0.418 0.442,-0.385L0.356,-0.373C0.352,-0.4 0.341,-0.421 0.322,-0.436C0.303,-0.451 0.277,-0.458 0.243,-0.458C0.202,-0.458 0.174,-0.451 0.156,-0.438C0.139,-0.425 0.13,-0.409 0.13,-0.391C0.13,-0.38 0.134,-0.369 0.141,-0.36C0.148,-0.351 0.16,-0.343 0.175,-0.337C0.184,-0.334 0.209,-0.326 0.252,-0.314C0.315,-0.298 0.358,-0.284 0.383,-0.274C0.407,-0.263 0.426,-0.248 0.44,-0.228C0.454,-0.207 0.461,-0.182 0.461,-0.152C0.461,-0.123 0.453,-0.095 0.436,-0.07C0.419,-0.044 0.394,-0.024 0.362,-0.01C0.33,0.005 0.293,0.012 0.252,0.012C0.185,0.012 0.134,-0.002 0.098,-0.03C0.063,-0.058 0.041,-0.1 0.031,-0.155Z" style="fill-rule:nonzero;"/>
                    </g>
                    <g transform="matrix(51.5589,0,0,41.7674,180.564,36.3635)">
                        <path d="M0.066,-0.615L0.066,-0.716L0.154,-0.716L0.154,-0.615L0.066,-0.615ZM0.066,-0L0.066,-0.519L0.154,-0.519L0.154,-0L0.066,-0Z" style="fill-rule:nonzero;"/>
                    </g>
                    <g transform="matrix(51.5589,0,0,41.7674,193.102,36.3635)">
                        <path d="M0.031,-0.155L0.118,-0.168C0.123,-0.134 0.136,-0.107 0.158,-0.088C0.181,-0.07 0.212,-0.061 0.252,-0.061C0.292,-0.061 0.322,-0.069 0.342,-0.085C0.361,-0.102 0.371,-0.121 0.371,-0.143C0.371,-0.163 0.362,-0.179 0.345,-0.19C0.333,-0.198 0.303,-0.208 0.255,-0.22C0.191,-0.236 0.146,-0.25 0.121,-0.262C0.096,-0.274 0.078,-0.29 0.065,-0.311C0.052,-0.332 0.045,-0.355 0.045,-0.381C0.045,-0.404 0.051,-0.425 0.061,-0.445C0.072,-0.465 0.086,-0.481 0.104,-0.494C0.118,-0.504 0.137,-0.513 0.16,-0.52C0.184,-0.527 0.209,-0.53 0.236,-0.53C0.277,-0.53 0.313,-0.524 0.344,-0.513C0.374,-0.501 0.397,-0.485 0.412,-0.465C0.426,-0.445 0.436,-0.418 0.442,-0.385L0.356,-0.373C0.352,-0.4 0.341,-0.421 0.322,-0.436C0.303,-0.451 0.277,-0.458 0.243,-0.458C0.202,-0.458 0.174,-0.451 0.156,-0.438C0.139,-0.425 0.13,-0.409 0.13,-0.391C0.13,-0.38 0.134,-0.369 0.141,-0.36C0.148,-0.351 0.16,-0.343 0.175,-0.337C0.184,-0.334 0.209,-0.326 0.252,-0.314C0.315,-0.298 0.358,-0.284 0.383,-0.274C0.407,-0.263 0.426,-0.248 0.44,-0.228C0.454,-0.207 0.461,-0.182 0.461,-0.152C0.461,-0.123 0.453,-0.095 0.436,-0.07C0.419,-0.044 0.394,-0.024 0.362,-0.01C0.33,0.005 0.293,0.012 0.252,0.012C0.185,0.012 0.134,-0.002 0.098,-0.03C0.063,-0.058 0.041,-0.1 0.031,-0.155Z" style="fill-rule:nonzero;"/>
                    </g>
                </g>
            </g>
        </g>
    </g>
</svg>
