<?xml version="1.0" encoding="UTF-8" standalone="no"?>
<!DOCTYPE svg PUBLIC "-//W3C//DTD SVG 1.1//EN" "http://www.w3.org/Graphics/SVG/1.1/DTD/svg11.dtd">
<svg width="100%" height="100%" viewBox="0 0 2929 995" version="1.1" xmlns="http://www.w3.org/2000/svg" xmlns:xlink="http://www.w3.org/1999/xlink" xml:space="preserve" xmlns:serif="http://www.serif.com/" style="fill-rule:evenodd;clip-rule:evenodd;stroke-linejoin:round;stroke-miterlimit:2;">
    <g id="dieBasis-KV-DHNI" transform="matrix(1,0,0,1,0,0.000416667)">
        <rect x="0" y="-0" width="2928.2" height="994.505" style="fill:none;"/>
        <g id="Ebene-1" serif:id="Ebene 1" transform="matrix(4.16667,0,0,4.16667,0,0.999583)">
            <g>
                <path d="M2.84,179.289C4.08,179.449 6.16,179.649 8.88,179.649C13.8,179.649 16.96,178.809 18.88,177.129C20.44,175.849 21.48,173.969 21.48,171.569C21.48,167.849 18.88,165.609 16.04,164.889L16.04,164.809C18.96,163.729 20.52,161.449 20.52,158.969C20.52,156.689 19.4,154.929 17.72,153.929C15.88,152.649 13.64,152.209 10,152.209C7.24,152.209 4.4,152.449 2.84,152.769L2.84,179.289ZM7.72,156.049C8.24,155.929 9.08,155.849 10.52,155.849C13.64,155.849 15.56,157.009 15.56,159.529C15.56,161.809 13.64,163.409 10.24,163.409L7.72,163.409L7.72,156.049ZM7.72,167.009L10.16,167.009C13.56,167.009 16.28,168.289 16.28,171.409C16.28,174.729 13.48,175.929 10.32,175.929C9.2,175.929 8.36,175.889 7.72,175.809L7.72,167.009Z" style="fill:rgb(76,76,78);fill-rule:nonzero;"/>
                <path d="M41.32,179.369C41.12,178.169 41.04,176.449 41.04,174.689L41.04,167.649C41.04,163.409 39.24,159.449 33,159.449C29.92,159.449 27.4,160.289 25.96,161.169L26.92,164.369C28.24,163.529 30.24,162.929 32.16,162.929C35.6,162.929 36.12,165.049 36.12,166.329L36.12,166.649C28.92,166.609 24.56,169.089 24.56,174.009C24.56,176.969 26.76,179.809 30.68,179.809C33.2,179.809 35.24,178.729 36.44,177.209L36.56,177.209L36.88,179.369L41.32,179.369ZM36.24,172.529C36.24,172.849 36.2,173.249 36.08,173.609C35.64,175.009 34.2,176.289 32.24,176.289C30.68,176.289 29.44,175.409 29.44,173.489C29.44,170.529 32.76,169.769 36.24,169.849L36.24,172.529Z" style="fill:rgb(76,76,78);fill-rule:nonzero;"/>
                <path d="M45.28,178.409C46.72,179.209 48.84,179.769 51.2,179.769C56.36,179.769 59.12,177.209 59.12,173.689C59.08,170.809 57.44,169.009 53.92,167.729C51.44,166.849 50.52,166.249 50.52,165.009C50.52,163.809 51.48,162.969 53.24,162.969C54.96,162.969 56.52,163.609 57.36,164.089L58.32,160.609C57.2,160.009 55.32,159.449 53.16,159.449C48.64,159.449 45.8,162.129 45.8,165.569C45.76,167.849 47.36,169.929 51.16,171.249C53.56,172.089 54.36,172.769 54.36,174.089C54.36,175.369 53.4,176.249 51.24,176.249C49.48,176.249 47.36,175.529 46.24,174.849L45.28,178.409Z" style="fill:rgb(76,76,78);fill-rule:nonzero;"/>
                <path d="M68.36,179.369L68.36,159.889L63.4,159.889L63.4,179.369L68.36,179.369ZM65.88,151.769C64.24,151.769 63.12,152.929 63.12,154.449C63.12,155.929 64.2,157.089 65.84,157.089C67.56,157.089 68.64,155.929 68.64,154.449C68.6,152.929 67.56,151.769 65.88,151.769Z" style="fill:rgb(76,76,78);fill-rule:nonzero;"/>
                <path d="M72.68,178.409C74.12,179.209 76.24,179.769 78.6,179.769C83.76,179.769 86.52,177.209 86.52,173.689C86.48,170.809 84.84,169.009 81.32,167.729C78.84,166.849 77.92,166.249 77.92,165.009C77.92,163.809 78.88,162.969 80.64,162.969C82.36,162.969 83.92,163.609 84.76,164.089L85.72,160.609C84.6,160.009 82.72,159.449 80.56,159.449C76.04,159.449 73.2,162.129 73.2,165.569C73.16,167.849 74.76,169.929 78.56,171.249C80.96,172.089 81.76,172.769 81.76,174.089C81.76,175.369 80.8,176.249 78.64,176.249C76.88,176.249 74.76,175.529 73.64,174.849L72.68,178.409Z" style="fill:rgb(76,76,78);fill-rule:nonzero;"/>
                <path d="M103.84,150.969L103.84,162.009L103.76,162.009C102.88,160.569 100.96,159.449 98.28,159.449C93.6,159.449 89.52,163.329 89.56,169.849C89.56,175.849 93.24,179.809 97.88,179.809C100.72,179.809 103.08,178.449 104.24,176.289L104.32,176.289L104.52,179.369L108.92,179.369C108.84,178.049 108.76,175.889 108.76,173.889L108.76,150.969L103.84,150.969ZM103.84,170.929C103.84,171.449 103.8,171.929 103.68,172.369C103.2,174.489 101.44,175.849 99.44,175.849C96.32,175.849 94.56,173.249 94.56,169.689C94.56,166.049 96.32,163.249 99.48,163.249C101.72,163.249 103.28,164.809 103.72,166.729C103.8,167.129 103.84,167.609 103.84,168.009L103.84,170.929Z" style="fill:rgb(76,76,78);fill-rule:nonzero;"/>
                <path d="M130.8,171.009C130.88,170.569 130.96,169.849 130.96,168.929C130.96,164.649 128.88,159.449 122.56,159.449C116.32,159.449 113.04,164.529 113.04,169.929C113.04,175.889 116.76,179.769 123.08,179.769C125.88,179.769 128.2,179.249 129.88,178.569L129.16,175.169C127.68,175.729 126.04,176.049 123.76,176.049C120.64,176.049 117.88,174.529 117.76,171.009L130.8,171.009ZM117.76,167.569C117.96,165.569 119.24,162.809 122.28,162.809C125.56,162.809 126.36,165.769 126.32,167.569L117.76,167.569Z" style="fill:rgb(76,76,78);fill-rule:nonzero;"/>
                <path d="M135.16,179.369L139.96,179.369L139.96,167.849C139.96,167.289 140.04,166.729 140.24,166.249C140.68,164.889 141.92,163.449 143.76,163.449C146.04,163.449 147.12,165.369 147.12,168.089L147.12,179.369L151.92,179.369L151.92,167.689C151.92,167.129 152.04,166.529 152.16,166.049C152.68,164.649 153.92,163.449 155.6,163.449C157.96,163.449 159.08,165.369 159.08,168.609L159.08,179.369L163.88,179.369L163.88,167.889C163.88,161.649 160.6,159.449 157.36,159.449C155.76,159.449 154.52,159.849 153.44,160.609C152.52,161.169 151.72,161.969 151.04,163.049L150.96,163.049C150.12,160.889 148.12,159.449 145.56,159.449C142.28,159.449 140.52,161.249 139.56,162.769L139.44,162.769L139.24,159.889L135,159.889C135.12,161.569 135.16,163.449 135.16,165.689L135.16,179.369Z" style="fill:rgb(76,76,78);fill-rule:nonzero;"/>
                <path d="M178.16,159.449C172.28,159.449 168.08,163.369 168.08,169.769C168.08,176.009 172.32,179.809 177.84,179.809C182.8,179.809 187.84,176.609 187.84,169.449C187.84,163.529 183.96,159.449 178.16,159.449ZM178.04,163.049C181.4,163.049 182.76,166.529 182.76,169.569C182.76,173.489 180.8,176.249 178,176.249C175,176.249 173.16,173.409 173.16,169.649C173.16,166.409 174.56,163.049 178.04,163.049Z" style="fill:rgb(76,76,78);fill-rule:nonzero;"/>
                <path d="M197.04,150.969L192.12,150.969L192.12,179.369L197.04,179.369L197.04,172.729L198.72,170.769L204.32,179.369L210.36,179.369L202.12,167.849L209.32,159.889L203.4,159.889L198.68,166.169C198.16,166.849 197.6,167.689 197.12,168.449L197.04,168.449L197.04,150.969Z" style="fill:rgb(76,76,78);fill-rule:nonzero;"/>
                <path d="M212.72,179.369L217.64,179.369L217.64,169.289C217.64,168.729 217.72,168.209 217.8,167.769C218.24,165.569 219.84,164.049 222.2,164.049C222.8,164.049 223.24,164.129 223.64,164.209L223.64,159.569C223.24,159.489 222.96,159.449 222.48,159.449C220.4,159.449 218.12,160.849 217.16,163.609L217,163.609L216.84,159.889L212.56,159.889C212.68,161.649 212.72,163.529 212.72,166.169L212.72,179.369Z" style="fill:rgb(76,76,78);fill-rule:nonzero;"/>
                <path d="M242.6,179.369C242.4,178.169 242.32,176.449 242.32,174.689L242.32,167.649C242.32,163.409 240.52,159.449 234.28,159.449C231.2,159.449 228.68,160.289 227.24,161.169L228.2,164.369C229.52,163.529 231.52,162.929 233.44,162.929C236.88,162.929 237.4,165.049 237.4,166.329L237.4,166.649C230.2,166.609 225.84,169.089 225.84,174.009C225.84,176.969 228.04,179.809 231.96,179.809C234.48,179.809 236.52,178.729 237.72,177.209L237.84,177.209L238.16,179.369L242.6,179.369ZM237.52,172.529C237.52,172.849 237.48,173.249 237.36,173.609C236.92,175.009 235.48,176.289 233.52,176.289C231.96,176.289 230.72,175.409 230.72,173.489C230.72,170.529 234.04,169.769 237.52,169.849L237.52,172.529Z" style="fill:rgb(76,76,78);fill-rule:nonzero;"/>
                <path d="M248.6,155.489L248.6,159.889L245.8,159.889L245.8,163.569L248.6,163.569L248.6,172.729C248.6,175.289 249.08,177.049 250.12,178.169C251.04,179.169 252.56,179.769 254.36,179.769C255.92,179.769 257.2,179.569 257.92,179.289L257.84,175.529C257.4,175.649 256.76,175.769 255.92,175.769C254.04,175.769 253.4,174.529 253.4,172.169L253.4,163.569L258.08,163.569L258.08,159.889L253.4,159.889L253.4,154.329L248.6,155.489Z" style="fill:rgb(76,76,78);fill-rule:nonzero;"/>
                <path d="M267,179.369L267,159.889L262.04,159.889L262.04,179.369L267,179.369ZM264.52,151.769C262.88,151.769 261.76,152.929 261.76,154.449C261.76,155.929 262.84,157.089 264.48,157.089C266.2,157.089 267.28,155.929 267.28,154.449C267.24,152.929 266.2,151.769 264.52,151.769Z" style="fill:rgb(76,76,78);fill-rule:nonzero;"/>
                <path d="M271.32,178.409C272.76,179.209 274.88,179.769 277.24,179.769C282.4,179.769 285.16,177.209 285.16,173.689C285.12,170.809 283.48,169.009 279.96,167.729C277.48,166.849 276.56,166.249 276.56,165.009C276.56,163.809 277.52,162.969 279.28,162.969C281,162.969 282.56,163.609 283.4,164.089L284.36,160.609C283.24,160.009 281.36,159.449 279.2,159.449C274.68,159.449 271.84,162.129 271.84,165.569C271.8,167.849 273.4,169.929 277.2,171.249C279.6,172.089 280.4,172.769 280.4,174.089C280.4,175.369 279.44,176.249 277.28,176.249C275.52,176.249 273.4,175.529 272.28,174.849L271.32,178.409Z" style="fill:rgb(76,76,78);fill-rule:nonzero;"/>
                <path d="M303.08,175.129C302.12,175.529 300.92,175.889 299.2,175.889C295.84,175.889 293.24,173.609 293.24,169.609C293.2,166.049 295.44,163.289 299.2,163.289C300.96,163.289 302.12,163.689 302.92,164.049L303.8,160.369C302.68,159.849 300.84,159.449 299.04,159.449C292.2,159.449 288.2,164.009 288.2,169.849C288.2,175.889 292.16,179.769 298.24,179.769C300.68,179.769 302.72,179.249 303.76,178.769L303.08,175.129Z" style="fill:rgb(76,76,78);fill-rule:nonzero;"/>
                <path d="M307.64,179.369L312.6,179.369L312.6,167.729C312.6,167.169 312.64,166.649 312.8,166.249C313.32,164.769 314.68,163.489 316.6,163.489C319.32,163.489 320.36,165.609 320.36,168.449L320.36,179.369L325.28,179.369L325.28,167.889C325.28,161.649 321.8,159.449 318.48,159.449C317.24,159.449 316.08,159.769 315.12,160.329C314.08,160.889 313.28,161.649 312.68,162.569L312.6,162.569L312.6,150.969L307.64,150.969L307.64,179.369Z" style="fill:rgb(76,76,78);fill-rule:nonzero;"/>
                <path d="M347.28,171.009C347.36,170.569 347.44,169.849 347.44,168.929C347.44,164.649 345.36,159.449 339.04,159.449C332.8,159.449 329.52,164.529 329.52,169.929C329.52,175.889 333.24,179.769 339.56,179.769C342.36,179.769 344.68,179.249 346.36,178.569L345.64,175.169C344.16,175.729 342.52,176.049 340.24,176.049C337.12,176.049 334.36,174.529 334.24,171.009L347.28,171.009ZM334.24,167.569C334.44,165.569 335.72,162.809 338.76,162.809C342.04,162.809 342.84,165.769 342.8,167.569L334.24,167.569Z" style="fill:rgb(76,76,78);fill-rule:nonzero;"/>
                <path d="M360.614,179.369L365.494,179.369L365.494,169.209C366.134,169.329 366.974,169.369 367.894,169.369C371.374,169.369 374.454,168.449 376.414,166.489C377.934,165.049 378.734,162.929 378.734,160.369C378.734,157.849 377.694,155.729 376.094,154.409C374.374,152.969 371.734,152.209 368.134,152.209C364.814,152.209 362.374,152.449 360.614,152.769L360.614,179.369ZM365.494,156.209C366.014,156.089 366.974,155.969 368.334,155.969C371.734,155.969 373.814,157.569 373.814,160.569C373.814,163.729 371.574,165.529 367.894,165.529C366.894,165.529 366.094,165.489 365.494,165.329L365.494,156.209Z" style="fill:rgb(76,76,78);fill-rule:nonzero;"/>
                <path d="M398.414,179.369C398.214,178.169 398.134,176.449 398.134,174.689L398.134,167.649C398.134,163.409 396.334,159.449 390.094,159.449C387.014,159.449 384.494,160.289 383.054,161.169L384.014,164.369C385.334,163.529 387.334,162.929 389.254,162.929C392.694,162.929 393.214,165.049 393.214,166.329L393.214,166.649C386.014,166.609 381.654,169.089 381.654,174.009C381.654,176.969 383.854,179.809 387.774,179.809C390.294,179.809 392.334,178.729 393.534,177.209L393.654,177.209L393.974,179.369L398.414,179.369ZM393.334,172.529C393.334,172.849 393.294,173.249 393.174,173.609C392.734,175.009 391.294,176.289 389.334,176.289C387.774,176.289 386.534,175.409 386.534,173.489C386.534,170.529 389.854,169.769 393.334,169.849L393.334,172.529Z" style="fill:rgb(76,76,78);fill-rule:nonzero;"/>
                <path d="M403.574,179.369L408.494,179.369L408.494,169.289C408.494,168.729 408.574,168.209 408.654,167.769C409.094,165.569 410.694,164.049 413.054,164.049C413.654,164.049 414.094,164.129 414.494,164.209L414.494,159.569C414.094,159.489 413.814,159.449 413.334,159.449C411.254,159.449 408.974,160.849 408.014,163.609L407.854,163.609L407.694,159.889L403.414,159.889C403.534,161.649 403.574,163.529 403.574,166.169L403.574,179.369Z" style="fill:rgb(76,76,78);fill-rule:nonzero;"/>
                <path d="M418.894,155.489L418.894,159.889L416.094,159.889L416.094,163.569L418.894,163.569L418.894,172.729C418.894,175.289 419.374,177.049 420.414,178.169C421.334,179.169 422.854,179.769 424.654,179.769C426.214,179.769 427.494,179.569 428.214,179.289L428.134,175.529C427.694,175.649 427.054,175.769 426.214,175.769C424.334,175.769 423.694,174.529 423.694,172.169L423.694,163.569L428.374,163.569L428.374,159.889L423.694,159.889L423.694,154.329L418.894,155.489Z" style="fill:rgb(76,76,78);fill-rule:nonzero;"/>
                <path d="M448.854,171.009C448.934,170.569 449.014,169.849 449.014,168.929C449.014,164.649 446.934,159.449 440.614,159.449C434.374,159.449 431.094,164.529 431.094,169.929C431.094,175.889 434.814,179.769 441.134,179.769C443.934,179.769 446.254,179.249 447.934,178.569L447.214,175.169C445.734,175.729 444.094,176.049 441.814,176.049C438.694,176.049 435.934,174.529 435.814,171.009L448.854,171.009ZM435.814,167.569C436.014,165.569 437.294,162.809 440.334,162.809C443.614,162.809 444.414,165.769 444.374,167.569L435.814,167.569Z" style="fill:rgb(76,76,78);fill-rule:nonzero;"/>
                <path d="M458.174,179.369L458.174,159.889L453.214,159.889L453.214,179.369L458.174,179.369ZM455.694,151.769C454.054,151.769 452.934,152.929 452.934,154.449C452.934,155.929 454.014,157.089 455.654,157.089C457.374,157.089 458.454,155.929 458.454,154.449C458.414,152.929 457.374,151.769 455.694,151.769Z" style="fill:rgb(76,76,78);fill-rule:nonzero;"/>
                <path d="M472.669,179.289C474.269,179.489 476.429,179.649 479.309,179.649C484.549,179.649 488.829,178.409 491.509,175.969C494.069,173.649 495.709,170.049 495.709,165.249C495.709,160.649 494.109,157.449 491.509,155.329C489.029,153.249 485.549,152.209 480.509,152.209C477.589,152.209 474.829,152.409 472.669,152.769L472.669,179.289ZM477.589,156.329C478.269,156.169 479.389,156.049 480.949,156.049C487.109,156.049 490.549,159.449 490.509,165.409C490.509,172.249 486.709,175.769 480.309,175.729C479.309,175.729 478.269,175.729 477.589,175.609L477.589,156.329Z" style="fill:rgb(76,76,78);fill-rule:nonzero;"/>
                <path d="M517.349,171.009C517.429,170.569 517.509,169.849 517.509,168.929C517.509,164.649 515.429,159.449 509.109,159.449C502.869,159.449 499.589,164.529 499.589,169.929C499.589,175.889 503.309,179.769 509.629,179.769C512.429,179.769 514.749,179.249 516.429,178.569L515.709,175.169C514.229,175.729 512.589,176.049 510.309,176.049C507.189,176.049 504.429,174.529 504.309,171.009L517.349,171.009ZM504.309,167.569C504.509,165.569 505.789,162.809 508.829,162.809C512.109,162.809 512.909,165.769 512.869,167.569L504.309,167.569Z" style="fill:rgb(76,76,78);fill-rule:nonzero;"/>
                <path d="M539.149,159.889L534.229,159.889L534.229,171.649C534.229,172.209 534.109,172.729 533.949,173.169C533.429,174.409 532.149,175.809 530.189,175.809C527.589,175.809 526.549,173.729 526.549,170.489L526.549,159.889L521.629,159.889L521.629,171.329C521.629,177.689 524.869,179.809 528.429,179.809C531.909,179.809 533.829,177.809 534.669,176.409L534.749,176.409L534.989,179.369L539.309,179.369C539.229,177.769 539.149,175.849 539.149,173.529L539.149,159.889Z" style="fill:rgb(76,76,78);fill-rule:nonzero;"/>
                <path d="M545.549,155.489L545.549,159.889L542.749,159.889L542.749,163.569L545.549,163.569L545.549,172.729C545.549,175.289 546.029,177.049 547.069,178.169C547.989,179.169 549.509,179.769 551.309,179.769C552.869,179.769 554.149,179.569 554.869,179.289L554.789,175.529C554.349,175.649 553.709,175.769 552.869,175.769C550.989,175.769 550.349,174.529 550.349,172.169L550.349,163.569L555.029,163.569L555.029,159.889L550.349,159.889L550.349,154.329L545.549,155.489Z" style="fill:rgb(76,76,78);fill-rule:nonzero;"/>
                <path d="M557.789,178.409C559.229,179.209 561.349,179.769 563.709,179.769C568.869,179.769 571.629,177.209 571.629,173.689C571.589,170.809 569.949,169.009 566.429,167.729C563.949,166.849 563.029,166.249 563.029,165.009C563.029,163.809 563.989,162.969 565.749,162.969C567.469,162.969 569.029,163.609 569.869,164.089L570.829,160.609C569.709,160.009 567.829,159.449 565.669,159.449C561.149,159.449 558.309,162.129 558.309,165.569C558.269,167.849 559.869,169.929 563.669,171.249C566.069,172.089 566.869,172.769 566.869,174.089C566.869,175.369 565.909,176.249 563.749,176.249C561.989,176.249 559.869,175.529 558.749,174.849L557.789,178.409Z" style="fill:rgb(76,76,78);fill-rule:nonzero;"/>
                <path d="M589.549,175.129C588.589,175.529 587.389,175.889 585.669,175.889C582.309,175.889 579.709,173.609 579.709,169.609C579.669,166.049 581.909,163.289 585.669,163.289C587.429,163.289 588.589,163.689 589.389,164.049L590.269,160.369C589.149,159.849 587.309,159.449 585.509,159.449C578.669,159.449 574.669,164.009 574.669,169.849C574.669,175.889 578.629,179.769 584.709,179.769C587.149,179.769 589.189,179.249 590.229,178.769L589.549,175.129Z" style="fill:rgb(76,76,78);fill-rule:nonzero;"/>
                <path d="M594.109,179.369L599.069,179.369L599.069,167.729C599.069,167.169 599.109,166.649 599.269,166.249C599.789,164.769 601.149,163.489 603.069,163.489C605.789,163.489 606.829,165.609 606.829,168.449L606.829,179.369L611.749,179.369L611.749,167.889C611.749,161.649 608.269,159.449 604.949,159.449C603.709,159.449 602.549,159.769 601.589,160.329C600.549,160.889 599.749,161.649 599.149,162.569L599.069,162.569L599.069,150.969L594.109,150.969L594.109,179.369Z" style="fill:rgb(76,76,78);fill-rule:nonzero;"/>
                <rect x="617.229" y="150.969" width="4.96" height="28.4" style="fill:rgb(76,76,78);fill-rule:nonzero;"/>
                <path d="M643.149,179.369C642.949,178.169 642.869,176.449 642.869,174.689L642.869,167.649C642.869,163.409 641.069,159.449 634.829,159.449C631.749,159.449 629.229,160.289 627.789,161.169L628.749,164.369C630.069,163.529 632.069,162.929 633.989,162.929C637.429,162.929 637.949,165.049 637.949,166.329L637.949,166.649C630.749,166.609 626.389,169.089 626.389,174.009C626.389,176.969 628.589,179.809 632.509,179.809C635.029,179.809 637.069,178.729 638.269,177.209L638.389,177.209L638.709,179.369L643.149,179.369ZM638.069,172.529C638.069,172.849 638.029,173.249 637.909,173.609C637.469,175.009 636.029,176.289 634.069,176.289C632.509,176.289 631.269,175.409 631.269,173.489C631.269,170.529 634.589,169.769 638.069,169.849L638.069,172.529Z" style="fill:rgb(76,76,78);fill-rule:nonzero;"/>
                <path d="M648.309,179.369L653.269,179.369L653.269,167.929C653.269,167.369 653.309,166.769 653.469,166.329C653.989,164.849 655.349,163.449 657.309,163.449C659.989,163.449 661.029,165.569 661.029,168.369L661.029,179.369L665.949,179.369L665.949,167.809C665.949,161.649 662.429,159.449 659.029,159.449C655.789,159.449 653.669,161.289 652.829,162.809L652.709,162.809L652.469,159.889L648.149,159.889C648.269,161.569 648.309,163.449 648.309,165.689L648.309,179.369Z" style="fill:rgb(76,76,78);fill-rule:nonzero;"/>
                <path d="M684.469,150.969L684.469,162.009L684.389,162.009C683.509,160.569 681.589,159.449 678.909,159.449C674.229,159.449 670.149,163.329 670.189,169.849C670.189,175.849 673.869,179.809 678.509,179.809C681.349,179.809 683.709,178.449 684.869,176.289L684.949,176.289L685.149,179.369L689.549,179.369C689.469,178.049 689.389,175.889 689.389,173.889L689.389,150.969L684.469,150.969ZM684.469,170.929C684.469,171.449 684.429,171.929 684.309,172.369C683.829,174.489 682.069,175.849 680.069,175.849C676.949,175.849 675.189,173.249 675.189,169.689C675.189,166.049 676.949,163.249 680.109,163.249C682.349,163.249 683.909,164.809 684.349,166.729C684.429,167.129 684.469,167.609 684.469,168.009L684.469,170.929Z" style="fill:rgb(76,76,78);fill-rule:nonzero;"/>
                <path d="M3.79,228.679L7.27,228.679L7.27,218.399L9.83,215.439L18.71,228.679L22.83,228.679L12.31,213.159L22.07,201.719L17.75,201.719L9.51,211.839C8.83,212.719 8.11,213.679 7.39,214.719L7.27,214.719L7.27,201.719L3.79,201.719L3.79,228.679Z" style="fill:rgb(76,76,78);fill-rule:nonzero;"/>
                <path d="M25.35,228.679L28.83,228.679L28.83,218.359C28.83,217.759 28.91,217.199 28.99,216.719C29.47,214.079 31.23,212.199 33.71,212.199C34.19,212.199 34.55,212.239 34.91,212.319L34.91,208.999C34.59,208.919 34.31,208.879 33.91,208.879C31.55,208.879 29.43,210.519 28.55,213.119L28.39,213.119L28.27,209.319L25.19,209.319C25.31,211.119 25.35,213.079 25.35,215.359L25.35,228.679Z" style="fill:rgb(76,76,78);fill-rule:nonzero;"/>
                <path d="M53.99,219.639C54.03,219.279 54.11,218.719 54.11,217.999C54.11,214.439 52.43,208.879 46.11,208.879C40.47,208.879 37.03,213.479 37.03,219.319C37.03,225.159 40.59,229.079 46.55,229.079C49.63,229.079 51.75,228.439 52.99,227.879L52.39,225.359C51.07,225.919 49.55,226.359 47.03,226.359C43.51,226.359 40.47,224.399 40.39,219.639L53.99,219.639ZM40.43,217.119C40.71,214.679 42.27,211.399 45.83,211.399C49.79,211.399 50.75,214.879 50.71,217.119L40.43,217.119Z" style="fill:rgb(76,76,78);fill-rule:nonzero;"/>
                <path d="M61.99,228.679L61.99,209.319L58.47,209.319L58.47,228.679L61.99,228.679ZM60.23,201.679C58.95,201.679 58.03,202.639 58.03,203.879C58.03,205.079 58.91,206.039 60.15,206.039C61.55,206.039 62.43,205.079 62.39,203.879C62.39,202.639 61.55,201.679 60.23,201.679Z" style="fill:rgb(76,76,78);fill-rule:nonzero;"/>
                <path d="M66.47,227.759C67.83,228.559 69.79,229.079 71.91,229.079C76.51,229.079 79.15,226.679 79.15,223.279C79.15,220.399 77.43,218.719 74.07,217.439C71.55,216.479 70.39,215.759 70.39,214.159C70.39,212.719 71.55,211.519 73.63,211.519C75.43,211.519 76.83,212.159 77.59,212.639L78.47,210.079C77.39,209.439 75.67,208.879 73.71,208.879C69.55,208.879 67.03,211.439 67.03,214.559C67.03,216.879 68.67,218.799 72.15,220.039C74.75,220.999 75.75,221.919 75.75,223.599C75.75,225.199 74.55,226.479 71.99,226.479C70.23,226.479 68.39,225.759 67.35,225.079L66.47,227.759Z" style="fill:rgb(76,76,78);fill-rule:nonzero;"/>
                <path d="M81.27,209.319L88.63,228.679L91.99,228.679L99.59,209.319L95.91,209.319L92.15,220.199C91.51,221.959 90.95,223.559 90.51,225.159L90.39,225.159C89.99,223.559 89.47,221.959 88.83,220.199L85.03,209.319L81.27,209.319Z" style="fill:rgb(76,76,78);fill-rule:nonzero;"/>
                <path d="M118.47,219.639C118.51,219.279 118.59,218.719 118.59,217.999C118.59,214.439 116.91,208.879 110.59,208.879C104.95,208.879 101.51,213.479 101.51,219.319C101.51,225.159 105.07,229.079 111.03,229.079C114.11,229.079 116.23,228.439 117.47,227.879L116.87,225.359C115.55,225.919 114.03,226.359 111.51,226.359C107.99,226.359 104.95,224.399 104.87,219.639L118.47,219.639ZM104.91,217.119C105.19,214.679 106.75,211.399 110.31,211.399C114.27,211.399 115.23,214.879 115.19,217.119L104.91,217.119Z" style="fill:rgb(76,76,78);fill-rule:nonzero;"/>
                <path d="M122.95,228.679L126.43,228.679L126.43,218.359C126.43,217.759 126.51,217.199 126.59,216.719C127.07,214.079 128.83,212.199 131.31,212.199C131.79,212.199 132.15,212.239 132.51,212.319L132.51,208.999C132.19,208.919 131.91,208.879 131.51,208.879C129.15,208.879 127.03,210.519 126.15,213.119L125.99,213.119L125.87,209.319L122.79,209.319C122.91,211.119 122.95,213.079 122.95,215.359L122.95,228.679Z" style="fill:rgb(76,76,78);fill-rule:nonzero;"/>
                <path d="M138.91,228.679L139.07,225.479L139.19,225.479C140.63,228.039 142.87,229.119 145.67,229.119C149.99,229.119 154.35,225.679 154.35,218.759C154.39,212.879 150.99,208.879 146.19,208.879C143.07,208.879 140.83,210.279 139.59,212.439L139.51,212.439L139.51,200.279L136.03,200.279L136.03,223.679C136.03,225.399 135.95,227.359 135.87,228.679L138.91,228.679ZM139.51,217.439C139.51,216.879 139.63,216.399 139.71,215.999C140.43,213.319 142.67,211.679 145.07,211.679C148.83,211.679 150.83,214.999 150.83,218.879C150.83,223.319 148.63,226.319 144.95,226.319C142.39,226.319 140.35,224.639 139.67,222.199C139.59,221.799 139.51,221.359 139.51,220.919L139.51,217.439Z" style="fill:rgb(76,76,78);fill-rule:nonzero;"/>
                <path d="M172.71,228.679C172.47,227.359 172.39,225.719 172.39,224.039L172.39,216.799C172.39,212.919 170.95,208.879 165.03,208.879C162.59,208.879 160.27,209.559 158.67,210.599L159.47,212.919C160.83,212.039 162.71,211.479 164.51,211.479C168.47,211.479 168.91,214.359 168.91,215.959L168.91,216.359C161.43,216.319 157.27,218.879 157.27,223.559C157.27,226.359 159.27,229.119 163.19,229.119C165.95,229.119 168.03,227.759 169.11,226.239L169.23,226.239L169.51,228.679L172.71,228.679ZM168.99,222.159C168.99,222.519 168.91,222.919 168.79,223.279C168.23,224.919 166.63,226.519 164.11,226.519C162.31,226.519 160.79,225.439 160.79,223.159C160.79,219.399 165.15,218.719 168.99,218.799L168.99,222.159Z" style="fill:rgb(76,76,78);fill-rule:nonzero;"/>
                <path d="M178.07,228.679L181.59,228.679L181.59,217.039C181.59,216.439 181.67,215.839 181.83,215.399C182.43,213.439 184.23,211.799 186.55,211.799C189.87,211.799 191.03,214.399 191.03,217.519L191.03,228.679L194.55,228.679L194.55,217.119C194.55,210.479 190.39,208.879 187.71,208.879C184.51,208.879 182.27,210.679 181.31,212.519L181.23,212.519L181.03,209.319L177.91,209.319C178.03,210.919 178.07,212.559 178.07,214.559L178.07,228.679Z" style="fill:rgb(76,76,78);fill-rule:nonzero;"/>
                <path d="M213.47,200.279L213.47,211.839L213.39,211.839C212.51,210.279 210.51,208.879 207.55,208.879C202.83,208.879 198.83,212.839 198.87,219.279C198.87,225.159 202.47,229.119 207.15,229.119C210.31,229.119 212.67,227.479 213.75,225.319L213.83,225.319L213.99,228.679L217.15,228.679C217.03,227.359 216.99,225.399 216.99,223.679L216.99,200.279L213.47,200.279ZM213.47,220.559C213.47,221.119 213.43,221.599 213.31,222.079C212.67,224.719 210.51,226.279 208.15,226.279C204.35,226.279 202.43,223.039 202.43,219.119C202.43,214.839 204.59,211.639 208.23,211.639C210.87,211.639 212.79,213.479 213.31,215.719C213.43,216.159 213.47,216.759 213.47,217.199L213.47,220.559Z" style="fill:rgb(76,76,78);fill-rule:nonzero;"/>
                <path d="M231.43,228.599C233.19,228.799 235.27,228.919 237.75,228.919C242.99,228.919 247.15,227.559 249.67,225.039C252.19,222.559 253.55,218.959 253.55,214.559C253.55,210.199 252.15,207.079 249.75,204.879C247.39,202.679 243.83,201.519 238.83,201.519C236.07,201.519 233.55,201.759 231.43,202.079L231.43,228.599ZM234.91,204.639C235.83,204.439 237.19,204.279 238.99,204.279C246.35,204.279 249.95,208.319 249.91,214.679C249.91,221.959 245.87,226.119 238.43,226.119C237.07,226.119 235.79,226.079 234.91,225.919L234.91,204.639Z" style="fill:rgb(76,76,78);fill-rule:nonzero;"/>
                <path d="M261.47,228.679L261.47,209.319L257.95,209.319L257.95,228.679L261.47,228.679ZM259.71,201.679C258.43,201.679 257.51,202.639 257.51,203.879C257.51,205.079 258.39,206.039 259.63,206.039C261.03,206.039 261.91,205.079 261.87,203.879C261.87,202.639 261.03,201.679 259.71,201.679Z" style="fill:rgb(76,76,78);fill-rule:nonzero;"/>
                <path d="M282.87,219.639C282.91,219.279 282.99,218.719 282.99,217.999C282.99,214.439 281.31,208.879 274.99,208.879C269.35,208.879 265.91,213.479 265.91,219.319C265.91,225.159 269.47,229.079 275.43,229.079C278.51,229.079 280.63,228.439 281.87,227.879L281.27,225.359C279.95,225.919 278.43,226.359 275.91,226.359C272.39,226.359 269.35,224.399 269.27,219.639L282.87,219.639ZM269.31,217.119C269.59,214.679 271.15,211.399 274.71,211.399C278.67,211.399 279.63,214.879 279.59,217.119L269.31,217.119Z" style="fill:rgb(76,76,78);fill-rule:nonzero;"/>
                <path d="M287.35,236.599L290.83,236.599L290.83,226.079L290.91,226.079C292.07,227.999 294.31,229.119 296.87,229.119C301.43,229.119 305.67,225.679 305.67,218.719C305.67,212.839 302.15,208.879 297.47,208.879C294.31,208.879 292.03,210.279 290.59,212.639L290.51,212.639L290.35,209.319L287.19,209.319C287.27,211.159 287.35,213.159 287.35,215.639L287.35,236.599ZM290.83,217.479C290.83,216.999 290.95,216.479 291.07,216.039C291.75,213.399 293.99,211.679 296.39,211.679C300.11,211.679 302.15,214.999 302.15,218.879C302.15,223.319 299.99,226.359 296.27,226.359C293.75,226.359 291.63,224.679 290.99,222.239C290.91,221.799 290.83,221.319 290.83,220.799L290.83,217.479Z" style="fill:rgb(76,76,78);fill-rule:nonzero;"/>
                <path d="M310.11,228.679L313.63,228.679L313.63,216.999C313.63,216.319 313.67,215.799 313.87,215.319C314.51,213.399 316.31,211.799 318.59,211.799C321.91,211.799 323.07,214.439 323.07,217.559L323.07,228.679L326.59,228.679L326.59,217.159C326.59,210.479 322.43,208.879 319.83,208.879C318.51,208.879 317.27,209.279 316.23,209.879C315.15,210.479 314.27,211.359 313.71,212.359L313.63,212.359L313.63,200.279L310.11,200.279L310.11,228.679Z" style="fill:rgb(76,76,78);fill-rule:nonzero;"/>
                <path d="M340.51,208.879C335.15,208.879 330.91,212.679 330.91,219.159C330.91,225.279 334.95,229.119 340.19,229.119C344.87,229.119 349.83,225.999 349.83,218.839C349.83,212.919 346.07,208.879 340.51,208.879ZM340.43,211.519C344.59,211.519 346.23,215.679 346.23,218.959C346.23,223.319 343.71,226.479 340.35,226.479C336.91,226.479 334.47,223.279 334.47,219.039C334.47,215.359 336.27,211.519 340.43,211.519Z" style="fill:rgb(76,76,78);fill-rule:nonzero;"/>
                <rect x="354.27" y="200.279" width="3.52" height="28.4" style="fill:rgb(76,76,78);fill-rule:nonzero;"/>
                <path d="M361.51,228.679L377.23,228.679L377.23,225.879L365.91,225.879L365.91,225.799C366.79,224.799 367.59,223.839 368.39,222.759L377.03,211.519L377.07,209.319L362.31,209.319L362.31,212.159L372.79,212.159L372.79,212.239C371.91,213.279 371.11,214.199 370.27,215.239L361.51,226.639L361.51,228.679Z" style="fill:rgb(76,76,78);fill-rule:nonzero;"/>
                <rect x="379.11" y="216.559" width="9.88" height="2.6" style="fill:rgb(76,76,78);fill-rule:nonzero;"/>
                <path d="M396.51,228.679L396.51,217.159C396.51,212.679 396.43,209.439 396.23,206.039L396.35,205.999C397.71,208.919 399.51,211.999 401.39,214.999L409.95,228.679L413.47,228.679L413.47,201.719L410.19,201.719L410.19,212.999C410.19,217.199 410.27,220.479 410.59,224.079L410.51,224.119C409.23,221.359 407.67,218.519 405.67,215.359L397.03,201.719L393.23,201.719L393.23,228.679L396.51,228.679Z" style="fill:rgb(76,76,78);fill-rule:nonzero;"/>
                <path d="M422.95,228.679L422.95,209.319L419.43,209.319L419.43,228.679L422.95,228.679ZM421.19,201.679C419.91,201.679 418.99,202.639 418.99,203.879C418.99,205.079 419.87,206.039 421.11,206.039C422.51,206.039 423.39,205.079 423.35,203.879C423.35,202.639 422.51,201.679 421.19,201.679Z" style="fill:rgb(76,76,78);fill-rule:nonzero;"/>
                <path d="M444.35,219.639C444.39,219.279 444.47,218.719 444.47,217.999C444.47,214.439 442.79,208.879 436.47,208.879C430.83,208.879 427.39,213.479 427.39,219.319C427.39,225.159 430.95,229.079 436.91,229.079C439.99,229.079 442.11,228.439 443.35,227.879L442.75,225.359C441.43,225.919 439.91,226.359 437.39,226.359C433.87,226.359 430.83,224.399 430.75,219.639L444.35,219.639ZM430.79,217.119C431.07,214.679 432.63,211.399 436.19,211.399C440.15,211.399 441.11,214.879 441.07,217.119L430.79,217.119Z" style="fill:rgb(76,76,78);fill-rule:nonzero;"/>
                <path d="M448.83,228.679L452.35,228.679L452.35,217.039C452.35,216.439 452.43,215.839 452.59,215.399C453.19,213.439 454.99,211.799 457.31,211.799C460.63,211.799 461.79,214.399 461.79,217.519L461.79,228.679L465.31,228.679L465.31,217.119C465.31,210.479 461.15,208.879 458.47,208.879C455.27,208.879 453.03,210.679 452.07,212.519L451.99,212.519L451.79,209.319L448.67,209.319C448.79,210.919 448.83,212.559 448.83,214.559L448.83,228.679Z" style="fill:rgb(76,76,78);fill-rule:nonzero;"/>
                <path d="M473.91,228.679L474.07,225.479L474.19,225.479C475.63,228.039 477.87,229.119 480.67,229.119C484.99,229.119 489.35,225.679 489.35,218.759C489.39,212.879 485.99,208.879 481.19,208.879C478.07,208.879 475.83,210.279 474.59,212.439L474.51,212.439L474.51,200.279L471.03,200.279L471.03,223.679C471.03,225.399 470.95,227.359 470.87,228.679L473.91,228.679ZM474.51,217.439C474.51,216.879 474.63,216.399 474.71,215.999C475.43,213.319 477.67,211.679 480.07,211.679C483.83,211.679 485.83,214.999 485.83,218.879C485.83,223.319 483.63,226.319 479.95,226.319C477.39,226.319 475.35,224.639 474.67,222.199C474.59,221.799 474.51,221.359 474.51,220.919L474.51,217.439Z" style="fill:rgb(76,76,78);fill-rule:nonzero;"/>
                <path d="M509.99,209.319L506.47,209.319L506.47,221.199C506.47,221.839 506.35,222.479 506.15,222.999C505.51,224.559 503.87,226.199 501.51,226.199C498.31,226.199 497.19,223.719 497.19,220.039L497.19,209.319L493.67,209.319L493.67,220.639C493.67,227.439 497.31,229.119 500.35,229.119C503.79,229.119 505.83,227.079 506.75,225.519L506.83,225.519L507.03,228.679L510.15,228.679C510.03,227.159 509.99,225.399 509.99,223.399L509.99,209.319Z" style="fill:rgb(76,76,78);fill-rule:nonzero;"/>
                <path d="M515.83,228.679L519.31,228.679L519.31,218.359C519.31,217.759 519.39,217.199 519.47,216.719C519.95,214.079 521.71,212.199 524.19,212.199C524.67,212.199 525.03,212.239 525.39,212.319L525.39,208.999C525.07,208.919 524.79,208.879 524.39,208.879C522.03,208.879 519.91,210.519 519.03,213.119L518.87,213.119L518.75,209.319L515.67,209.319C515.79,211.119 515.83,213.079 515.83,215.359L515.83,228.679Z" style="fill:rgb(76,76,78);fill-rule:nonzero;"/>
                <path d="M542.51,209.319L542.35,212.239L542.27,212.239C541.43,210.639 539.59,208.879 536.23,208.879C531.79,208.879 527.51,212.599 527.51,219.159C527.51,224.519 530.95,228.599 535.75,228.599C538.75,228.599 540.83,227.159 541.91,225.359L541.99,225.359L541.99,227.519C541.99,232.399 539.35,234.279 535.75,234.279C533.35,234.279 531.35,233.559 530.07,232.759L529.19,235.439C530.75,236.479 533.31,237.039 535.63,237.039C538.07,237.039 540.79,236.479 542.67,234.719C544.55,233.039 545.43,230.319 545.43,225.879L545.43,214.639C545.43,212.279 545.51,210.719 545.59,209.319L542.51,209.319ZM541.95,220.439C541.95,221.039 541.87,221.719 541.67,222.319C540.91,224.559 538.95,225.919 536.79,225.919C532.99,225.919 531.07,222.759 531.07,218.959C531.07,214.479 533.47,211.639 536.83,211.639C539.39,211.639 541.11,213.319 541.75,215.359C541.91,215.839 541.95,216.359 541.95,216.959L541.95,220.439Z" style="fill:rgb(76,76,78);fill-rule:nonzero;"/>
                <path d="M566.27,228.679L569.67,228.679L569.67,202.679L566.67,202.679L560.99,205.719L561.67,208.399L566.19,205.959L566.27,205.959L566.27,228.679Z" style="fill:rgb(76,76,78);fill-rule:nonzero;"/>
            </g>
            <g transform="matrix(1,0,0,1,199.62,36.1703)">
                <path d="M0,51.25C0,53.713 -0.164,55.849 -0.821,57.821C-4.106,70.798 -14.783,78.353 -26.118,78.353C-44.844,78.353 -53.714,62.091 -53.714,44.351C-53.714,23.982 -42.873,9.035 -25.625,9.035C-12.813,9.035 -3.449,17.74 -0.821,28.253C-0.164,30.553 0,33.346 0,35.48L0,51.25ZM7.884,64.884L7.884,-33.674L0,-33.674L0,16.427L-0.328,16.427C-3.778,9.526 -12.484,2.463 -26.118,2.463C-45.5,2.463 -61.763,18.891 -61.598,45.172C-61.598,68.662 -47.144,84.924 -27.596,84.924C-12.977,84.924 -3.613,76.874 0.492,68.167L0.821,68.167L1.479,83.116L8.541,83.116C8.048,77.531 7.884,70.634 7.884,64.884" style="fill:rgb(76,76,78);fill-rule:nonzero;"/>
            </g>
            <g transform="matrix(0,-1,-1,0,274.195,83.807)">
                <rect x="-35.479" y="35.479" width="78.842" height="7.886" style="fill:rgb(76,76,78);"/>
            </g>
            <g transform="matrix(1,0,0,1,313.455,86.7631)">
                <path d="M0,-13.963L-49.771,-13.963C-48.293,-26.117 -40.9,-41.559 -23.488,-41.559C-4.436,-41.559 0.164,-24.968 0,-13.963M8.212,-12.484C8.212,-23.817 3.285,-48.129 -22.503,-48.129C-42.872,-48.129 -57.983,-31.703 -57.983,-5.42C-57.983,17.741 -43.857,34.166 -21.188,34.166C-7.392,34.166 0.657,30.717 3.613,29.074L1.643,22.995C-2.793,25.131 -8.705,27.431 -20.203,27.431C-36.467,27.431 -50.263,17.411 -50.263,-7.721L7.885,-7.721C8.212,-9.198 8.212,-10.349 8.212,-12.484" style="fill:rgb(76,76,78);fill-rule:nonzero;"/>
            </g>
            <g transform="matrix(1,0,0,1,0,-155.649)">
                <rect x="97.469" y="158.144" width="15.771" height="117.042" style="fill:rgb(247,147,29);"/>
            </g>
            <g transform="matrix(1,0,0,1,0,-155.649)">
                <rect x="65.925" y="158.144" width="15.771" height="117.042" style="fill:rgb(227,30,48);"/>
            </g>
            <g transform="matrix(1,0,0,1,0,-155.649)">
                <rect x="34.382" y="158.144" width="15.771" height="117.042" style="fill:rgb(32,71,132);"/>
            </g>
            <g transform="matrix(1,0,0,1,0,-155.649)">
                <rect x="2.838" y="158.144" width="15.771" height="117.042" style="fill:rgb(42,164,73);"/>
            </g>
            <g transform="matrix(0,-1,-1,0,234.773,13.5059)">
                <path d="M-6.324,-6.325C-9.817,-6.325 -12.649,-3.494 -12.649,-0C-12.649,3.493 -9.817,6.324 -6.324,6.324C-2.831,6.324 0,3.493 0,-0C0,-3.494 -2.831,-6.325 -6.324,-6.325" style="fill:rgb(76,76,78);fill-rule:nonzero;"/>
            </g>
            <g transform="matrix(1,0,0,1,373.443,16.4309)">
                <path d="M0,88.336C-4.947,88.336 -8.658,88.159 -11.485,87.806L-11.485,48.938L-0.708,48.938C14.309,48.938 26.322,54.59 26.322,68.371C26.322,83.036 13.958,88.336 0,88.336M-11.485,0.529C-9.188,-0.001 -5.478,-0.353 0.882,-0.353C14.663,-0.353 23.144,4.77 23.144,15.9C23.144,25.971 14.663,33.037 -0.354,33.037L-11.485,33.037L-11.485,0.529ZM25.264,39.573L25.264,39.221C38.161,34.45 45.051,24.379 45.051,13.426C45.051,3.357 40.104,-4.417 32.684,-8.834C24.557,-14.488 14.663,-16.431 -1.415,-16.431C-13.605,-16.431 -26.148,-15.371 -33.039,-13.957L-33.039,103.176C-27.562,103.884 -18.375,104.767 -6.362,104.767C15.369,104.767 29.326,101.056 37.809,93.636C44.697,87.983 49.291,79.678 49.291,69.079C49.291,52.648 37.809,42.753 25.264,39.573" style="fill:rgb(76,76,78);fill-rule:nonzero;"/>
            </g>
            <g transform="matrix(1,0,0,1,483.707,64.1314)">
                <path d="M0,25.618C0,27.031 -0.177,28.798 -0.708,30.389C-2.65,36.573 -9.01,42.225 -17.668,42.225C-24.558,42.225 -30.035,38.338 -30.035,29.859C-30.035,16.785 -15.371,13.427 0,13.781L0,25.618ZM21.199,35.16L21.199,4.064C21.199,-14.664 13.25,-32.155 -14.312,-32.155C-27.914,-32.155 -39.044,-28.444 -45.405,-24.556L-41.165,-10.423C-35.336,-14.133 -26.501,-16.784 -18.021,-16.784C-2.826,-16.784 -0.531,-7.421 -0.531,-1.767L-0.531,-0.352C-32.332,-0.53 -51.589,10.424 -51.589,32.155C-51.589,45.23 -41.872,57.773 -24.558,57.773C-13.428,57.773 -4.418,53.003 0.884,46.289L1.413,46.289L2.825,55.829L22.437,55.829C21.554,50.529 21.199,42.932 21.199,35.16" style="fill:rgb(76,76,78);fill-rule:nonzero;"/>
            </g>
            <g transform="matrix(1,0,0,1,523.656,53.7079)">
                <path d="M0,46.288C4.946,49.293 14.311,52.472 22.083,52.472C31.625,52.472 35.862,48.585 35.862,42.932C35.862,37.101 32.33,34.099 21.73,30.389C4.946,24.558 -2.121,15.371 -1.944,5.299C-1.944,-9.893 10.6,-21.732 30.564,-21.732C40.105,-21.732 48.407,-19.257 53.355,-16.608L49.114,-1.235C45.406,-3.357 38.514,-6.183 30.918,-6.183C23.145,-6.183 18.904,-2.473 18.904,2.827C18.904,8.305 22.967,10.954 33.922,14.841C49.468,20.495 56.711,28.445 56.889,41.165C56.889,56.713 44.697,68.02 21.906,68.02C11.484,68.02 2.118,65.546 -4.242,62.014L0,46.288Z" style="fill:rgb(76,76,78);fill-rule:nonzero;"/>
            </g>
            <g transform="matrix(1,0,0,1,0,-117.797)">
                <rect x="595.43" y="158.204" width="21.506" height="79.07" style="fill:rgb(76,76,78);"/>
            </g>
            <g transform="matrix(1,0,0,1,636.235,53.7079)">
                <path d="M0,46.288C4.946,49.293 14.312,52.472 22.084,52.472C31.626,52.472 35.864,48.585 35.864,42.932C35.864,37.101 32.331,34.099 21.732,30.389C4.946,24.558 -2.12,15.371 -1.942,5.299C-1.942,-9.893 10.601,-21.732 30.565,-21.732C40.104,-21.732 48.408,-19.257 53.356,-16.608L49.115,-1.235C45.407,-3.357 38.515,-6.183 30.919,-6.183C23.146,-6.183 18.904,-2.473 18.904,2.827C18.904,8.305 22.968,10.954 33.921,14.841C49.47,20.495 56.714,28.445 56.89,41.165C56.89,56.713 44.698,68.02 21.907,68.02C11.485,68.02 2.119,65.546 -4.241,62.014L0,46.288Z" style="fill:rgb(76,76,78);fill-rule:nonzero;"/>
            </g>
            <g transform="matrix(0,-1,-1,0,606.182,2.3512)">
                <path d="M-11.863,-11.864C-18.415,-11.864 -23.727,-6.552 -23.727,-0.001C-23.727,6.55 -18.415,11.863 -11.863,11.863C-5.311,11.863 0,6.55 0,-0.001C0,-6.552 -5.311,-11.864 -11.863,-11.864" style="fill:rgb(76,76,78);fill-rule:nonzero;"/>
            </g>
        </g>
    </g>
</svg>
