<?xml version="1.0" encoding="UTF-8" standalone="no"?>
<!DOCTYPE svg PUBLIC "-//W3C//DTD SVG 1.1//EN" "http://www.w3.org/Graphics/SVG/1.1/DTD/svg11.dtd">
<svg width="100%" height="100%" viewBox="0 0 100 27" version="1.1" xmlns="http://www.w3.org/2000/svg" xmlns:xlink="http://www.w3.org/1999/xlink" xml:space="preserve" xmlns:serif="http://www.serif.com/" style="fill-rule:evenodd;clip-rule:evenodd;stroke-linejoin:round;stroke-miterlimit:2;">
    <g transform="matrix(1,0,0,1,0.0020164,-1.2701e-05)">
        <g transform="matrix(0.142857,0,0,0.142857,-0.00172834,-38.9387)">
            <g id="logo-navbar-kurven" transform="matrix(0.468212,0,0,0.534167,1050.33,416.475)">
                <rect x="-2243.28" y="-269.397" width="1495.05" height="343.213" style="fill:none;"/>
                <g>
                    <g transform="matrix(2.74736,0,0,1.8366,-2251.08,-559.844)">
                        <rect x="97.469" y="158.144" width="15.771" height="117.042" style="fill:rgb(247,147,29);"/>
                    </g>
                    <g transform="matrix(2.74736,0,0,1.8366,-2251.08,-559.844)">
                        <rect x="65.925" y="158.144" width="15.771" height="117.042" style="fill:rgb(227,30,48);"/>
                    </g>
                    <g transform="matrix(2.74736,0,0,1.8366,-2251.08,-559.844)">
                        <rect x="34.382" y="158.144" width="15.771" height="117.042" style="fill:rgb(32,71,132);"/>
                    </g>
                    <g transform="matrix(2.74736,0,0,1.8366,-2251.08,-559.844)">
                        <rect x="2.838" y="158.144" width="15.771" height="117.042" style="fill:rgb(42,164,73);"/>
                    </g>
                    <g transform="matrix(2.13578,0,0,1.87207,-2286.6,-290.731)">
                        <path d="M242.544,11.396L242.544,56.846L242.244,56.846C238.944,50.696 231.144,44.246 218.694,44.246C200.994,44.246 186.144,59.246 186.294,83.246C186.294,104.696 199.644,119.546 217.344,119.546C230.694,119.546 239.244,112.196 242.994,104.246L243.294,104.246L243.744,117.896L250.194,117.896C249.894,112.796 249.594,106.496 249.594,101.096L249.594,11.396L242.544,11.396ZM242.544,88.796C242.544,91.046 242.244,92.846 241.794,94.796C238.644,106.796 229.044,113.546 218.694,113.546C201.594,113.546 193.494,98.696 193.494,82.496C193.494,63.746 203.394,50.096 219.144,50.096C230.844,50.096 239.244,58.196 241.794,67.796C242.244,69.746 242.544,72.446 242.544,74.396L242.544,88.796Z" style="fill:rgb(74,73,73);fill-rule:nonzero;"/>
                        <path d="M283.644,117.896L283.644,45.896L276.594,45.896L276.594,117.896L283.644,117.896ZM280.194,19.046C276.894,19.046 274.344,22.046 274.344,25.346C274.344,28.646 276.594,31.496 279.894,31.496C283.644,31.496 285.894,28.646 285.894,25.346C285.894,21.896 283.644,19.046 280.194,19.046Z" style="fill:rgb(74,73,73);fill-rule:nonzero;"/>
                        <path d="M364.794,81.146C365.094,79.946 365.094,78.746 365.094,76.796C365.094,66.446 360.594,44.246 337.044,44.246C318.444,44.246 304.644,59.246 304.644,83.246C304.644,104.396 317.544,119.546 338.244,119.546C350.844,119.546 358.194,116.396 360.894,114.896L359.094,109.196C355.044,111.146 349.644,113.246 339.144,113.246C324.294,113.246 311.694,104.246 311.694,81.146L364.794,81.146ZM312.144,75.446C313.344,64.346 320.244,50.096 336.144,50.096C353.544,50.096 357.744,65.396 357.594,75.446L312.144,75.446Z" style="fill:rgb(74,73,73);fill-rule:nonzero;"/>
                        <path d="M384.594,117.596C389.244,118.196 397.044,118.946 407.244,118.946C425.694,118.946 437.544,115.796 444.744,109.496C450.594,104.696 454.494,97.646 454.494,88.646C454.494,74.696 444.744,66.296 434.094,63.596L434.094,63.296C445.044,59.246 450.894,50.696 450.894,41.396C450.894,32.846 446.694,26.246 440.394,22.496C433.494,17.696 425.094,16.046 411.444,16.046C401.094,16.046 390.444,16.946 384.594,18.146L384.594,117.596ZM402.894,30.446C404.844,29.996 407.994,29.696 413.394,29.696C425.094,29.696 432.294,34.046 432.294,43.496C432.294,52.046 425.094,58.046 412.344,58.046L402.894,58.046L402.894,30.446ZM402.894,71.546L412.044,71.546C424.794,71.546 434.994,76.346 434.994,88.046C434.994,100.496 424.494,104.996 412.644,104.996C408.444,104.996 405.294,104.846 402.894,104.546L402.894,71.546Z" style="fill:rgb(74,73,73);fill-rule:nonzero;"/>
                        <path d="M531.144,117.896C530.394,113.396 530.094,106.946 530.094,100.346L530.094,73.946C530.094,58.046 523.344,43.196 499.944,43.196C488.394,43.196 478.944,46.346 473.544,49.646L477.144,61.646C482.094,58.496 489.594,56.246 496.794,56.246C509.694,56.246 511.644,64.196 511.644,68.996L511.644,70.196C484.644,70.046 468.294,79.346 468.294,97.796C468.294,108.896 476.544,119.546 491.244,119.546C500.694,119.546 508.344,115.496 512.844,109.796L513.294,109.796L514.494,117.896L531.144,117.896ZM512.094,92.246C512.094,93.446 511.944,94.946 511.494,96.296C509.844,101.546 504.444,106.346 497.094,106.346C491.244,106.346 486.594,103.046 486.594,95.846C486.594,84.746 499.044,81.896 512.094,82.196L512.094,92.246Z" style="fill:rgb(74,73,73);fill-rule:nonzero;"/>
                        <path d="M547.794,114.296C553.194,117.296 561.144,119.396 569.994,119.396C589.344,119.396 599.694,109.796 599.694,96.596C599.544,85.796 593.394,79.046 580.194,74.246C570.894,70.946 567.444,68.696 567.444,64.046C567.444,59.546 571.044,56.396 577.644,56.396C584.094,56.396 589.944,58.796 593.094,60.596L596.694,47.546C592.494,45.296 585.444,43.196 577.344,43.196C560.394,43.196 549.744,53.246 549.744,66.146C549.594,74.696 555.594,82.496 569.844,87.446C578.844,90.596 581.844,93.146 581.844,98.096C581.844,102.896 578.244,106.196 570.144,106.196C563.544,106.196 555.594,103.496 551.394,100.946L547.794,114.296Z" style="fill:rgb(74,73,73);fill-rule:nonzero;"/>
                        <path d="M636.144,117.896L636.144,44.846L617.544,44.846L617.544,117.896L636.144,117.896ZM626.844,14.396C620.694,14.396 616.494,18.746 616.494,24.446C616.494,29.996 620.544,34.346 626.694,34.346C633.144,34.346 637.194,29.996 637.194,24.446C637.044,18.746 633.144,14.396 626.844,14.396Z" style="fill:rgb(74,73,73);fill-rule:nonzero;"/>
                        <path d="M654.144,114.296C659.544,117.296 667.494,119.396 676.344,119.396C695.694,119.396 706.044,109.796 706.044,96.596C705.894,85.796 699.744,79.046 686.544,74.246C677.244,70.946 673.794,68.696 673.794,64.046C673.794,59.546 677.394,56.396 683.994,56.396C690.444,56.396 696.294,58.796 699.444,60.596L703.044,47.546C698.844,45.296 691.794,43.196 683.694,43.196C666.744,43.196 656.094,53.246 656.094,66.146C655.944,74.696 661.944,82.496 676.194,87.446C685.194,90.596 688.194,93.146 688.194,98.096C688.194,102.896 684.594,106.196 676.494,106.196C669.894,106.196 661.944,103.496 657.744,100.946L654.144,114.296Z" style="fill:rgb(74,73,73);fill-rule:nonzero;"/>
                    </g>
                    <g transform="matrix(2.13578,0,0,1.87207,-2243.28,-278.591)">
                        <path d="M2.071,146.87C2.975,146.987 4.492,147.133 6.475,147.133C10.062,147.133 12.367,146.52 13.767,145.295C14.904,144.362 15.662,142.991 15.662,141.241C15.662,138.528 13.767,136.895 11.696,136.37L11.696,136.312C13.825,135.524 14.962,133.862 14.962,132.053C14.962,130.391 14.146,129.108 12.921,128.378C11.579,127.445 9.946,127.124 7.292,127.124C5.279,127.124 3.208,127.299 2.071,127.533L2.071,146.87ZM5.629,129.924C6.008,129.837 6.621,129.778 7.671,129.778C9.946,129.778 11.346,130.624 11.346,132.462C11.346,134.124 9.946,135.291 7.467,135.291L5.629,135.291L5.629,129.924ZM5.629,137.916L7.408,137.916C9.887,137.916 11.871,138.849 11.871,141.124C11.871,143.545 9.829,144.42 7.525,144.42C6.708,144.42 6.096,144.391 5.629,144.333L5.629,137.916Z" style="fill:rgb(74,73,73);fill-rule:nonzero;"/>
                        <path d="M31.5,146.928C31.354,146.053 31.296,144.799 31.296,143.516L31.296,138.383C31.296,135.291 29.983,132.403 25.433,132.403C23.187,132.403 21.35,133.016 20.3,133.658L21,135.991C21.962,135.378 23.421,134.941 24.821,134.941C27.329,134.941 27.708,136.487 27.708,137.42L27.708,137.653C22.458,137.624 19.279,139.433 19.279,143.02C19.279,145.178 20.883,147.249 23.742,147.249C25.579,147.249 27.067,146.462 27.942,145.353L28.029,145.353L28.262,146.928L31.5,146.928ZM27.796,141.941C27.796,142.174 27.767,142.466 27.679,142.728C27.358,143.749 26.308,144.683 24.879,144.683C23.742,144.683 22.837,144.041 22.837,142.641C22.837,140.483 25.258,139.928 27.796,139.987L27.796,141.941Z" style="fill:rgb(74,73,73);fill-rule:nonzero;"/>
                        <path d="M35.671,146.228C36.721,146.812 38.267,147.22 39.987,147.22C43.75,147.22 45.762,145.353 45.762,142.787C45.733,140.687 44.537,139.374 41.971,138.441C40.162,137.799 39.492,137.362 39.492,136.458C39.492,135.583 40.192,134.97 41.475,134.97C42.729,134.97 43.867,135.437 44.479,135.787L45.179,133.249C44.362,132.812 42.992,132.403 41.417,132.403C38.121,132.403 36.05,134.358 36.05,136.866C36.021,138.528 37.187,140.045 39.958,141.008C41.708,141.62 42.292,142.116 42.292,143.078C42.292,144.012 41.592,144.653 40.017,144.653C38.733,144.653 37.187,144.128 36.371,143.633L35.671,146.228Z" style="fill:rgb(74,73,73);fill-rule:nonzero;"/>
                        <path d="M53.783,146.928L53.783,132.724L50.167,132.724L50.167,146.928L53.783,146.928ZM51.975,126.803C50.779,126.803 49.962,127.649 49.962,128.758C49.962,129.837 50.75,130.683 51.946,130.683C53.2,130.683 53.987,129.837 53.987,128.758C53.958,127.649 53.2,126.803 51.975,126.803Z" style="fill:rgb(74,73,73);fill-rule:nonzero;"/>
                        <path d="M58.217,146.228C59.267,146.812 60.812,147.22 62.533,147.22C66.296,147.22 68.308,145.353 68.308,142.787C68.279,140.687 67.083,139.374 64.517,138.441C62.708,137.799 62.037,137.362 62.037,136.458C62.037,135.583 62.737,134.97 64.021,134.97C65.275,134.97 66.413,135.437 67.025,135.787L67.725,133.249C66.908,132.812 65.538,132.403 63.962,132.403C60.667,132.403 58.596,134.358 58.596,136.866C58.567,138.528 59.733,140.045 62.504,141.008C64.254,141.62 64.837,142.116 64.837,143.078C64.837,144.012 64.137,144.653 62.562,144.653C61.279,144.653 59.733,144.128 58.917,143.633L58.217,146.228Z" style="fill:rgb(74,73,73);fill-rule:nonzero;"/>
                        <path d="M82.221,126.22L82.221,134.27L82.162,134.27C81.521,133.22 80.121,132.403 78.167,132.403C74.754,132.403 71.779,135.233 71.808,139.987C71.808,144.362 74.492,147.249 77.875,147.249C79.946,147.249 81.667,146.258 82.512,144.683L82.571,144.683L82.717,146.928L85.925,146.928C85.867,145.966 85.808,144.391 85.808,142.933L85.808,126.22L82.221,126.22ZM82.221,140.774C82.221,141.153 82.192,141.503 82.104,141.824C81.754,143.37 80.471,144.362 79.012,144.362C76.738,144.362 75.454,142.466 75.454,139.87C75.454,137.216 76.738,135.174 79.042,135.174C80.675,135.174 81.813,136.312 82.133,137.712C82.192,138.003 82.221,138.353 82.221,138.645L82.221,140.774Z" style="fill:rgb(74,73,73);fill-rule:nonzero;"/>
                        <path d="M103.162,140.833C103.221,140.512 103.279,139.987 103.279,139.316C103.279,136.195 101.762,132.403 97.154,132.403C92.604,132.403 90.212,136.108 90.212,140.045C90.212,144.391 92.925,147.22 97.533,147.22C99.575,147.22 101.267,146.841 102.492,146.345L101.967,143.866C100.887,144.274 99.692,144.508 98.029,144.508C95.754,144.508 93.742,143.399 93.654,140.833L103.162,140.833ZM93.654,138.324C93.8,136.866 94.733,134.853 96.95,134.853C99.342,134.853 99.925,137.012 99.896,138.324L93.654,138.324Z" style="fill:rgb(74,73,73);fill-rule:nonzero;"/>
                        <path d="M107.625,146.928L111.125,146.928L111.125,138.528C111.125,138.12 111.183,137.712 111.329,137.362C111.65,136.37 112.554,135.32 113.896,135.32C115.558,135.32 116.346,136.72 116.346,138.703L116.346,146.928L119.846,146.928L119.846,138.412C119.846,138.003 119.933,137.566 120.021,137.216C120.4,136.195 121.304,135.32 122.529,135.32C124.25,135.32 125.067,136.72 125.067,139.083L125.067,146.928L128.567,146.928L128.567,138.558C128.567,134.008 126.175,132.403 123.812,132.403C122.646,132.403 121.742,132.695 120.954,133.249C120.283,133.658 119.7,134.241 119.204,135.028L119.146,135.028C118.533,133.453 117.075,132.403 115.208,132.403C112.817,132.403 111.533,133.716 110.833,134.824L110.746,134.824L110.6,132.724L107.508,132.724C107.596,133.949 107.625,135.32 107.625,136.953L107.625,146.928Z" style="fill:rgb(74,73,73);fill-rule:nonzero;"/>
                        <path d="M140.263,132.403C135.975,132.403 132.913,135.262 132.913,139.928C132.913,144.478 136.004,147.249 140.029,147.249C143.646,147.249 147.321,144.916 147.321,139.695C147.321,135.378 144.492,132.403 140.263,132.403ZM140.175,135.028C142.625,135.028 143.617,137.566 143.617,139.783C143.617,142.641 142.187,144.653 140.146,144.653C137.958,144.653 136.617,142.583 136.617,139.841C136.617,137.478 137.638,135.028 140.175,135.028Z" style="fill:rgb(74,73,73);fill-rule:nonzero;"/>
                        <path d="M155.312,126.22L151.725,126.22L151.725,146.928L155.312,146.928L155.312,142.087L156.538,140.658L160.621,146.928L165.025,146.928L159.017,138.528L164.267,132.724L159.95,132.724L156.508,137.303C156.129,137.799 155.721,138.412 155.371,138.966L155.312,138.966L155.312,126.22Z" style="fill:rgb(74,73,73);fill-rule:nonzero;"/>
                        <path d="M168.408,146.928L171.996,146.928L171.996,139.578C171.996,139.17 172.054,138.791 172.112,138.47C172.433,136.866 173.6,135.758 175.321,135.758C175.758,135.758 176.079,135.816 176.371,135.874L176.371,132.491C176.079,132.433 175.875,132.403 175.525,132.403C174.008,132.403 172.346,133.424 171.646,135.437L171.529,135.437L171.413,132.724L168.292,132.724C168.379,134.008 168.408,135.378 168.408,137.303L168.408,146.928Z" style="fill:rgb(74,73,73);fill-rule:nonzero;"/>
                        <path d="M191.217,146.928C191.071,146.053 191.012,144.799 191.012,143.516L191.012,138.383C191.012,135.291 189.7,132.403 185.15,132.403C182.904,132.403 181.067,133.016 180.017,133.658L180.717,135.991C181.679,135.378 183.137,134.941 184.538,134.941C187.046,134.941 187.425,136.487 187.425,137.42L187.425,137.653C182.175,137.624 178.996,139.433 178.996,143.02C178.996,145.178 180.6,147.249 183.458,147.249C185.296,147.249 186.783,146.462 187.658,145.353L187.746,145.353L187.979,146.928L191.217,146.928ZM187.512,141.941C187.512,142.174 187.483,142.466 187.396,142.728C187.075,143.749 186.025,144.683 184.596,144.683C183.458,144.683 182.554,144.041 182.554,142.641C182.554,140.483 184.975,139.928 187.512,139.987L187.512,141.941Z" style="fill:rgb(74,73,73);fill-rule:nonzero;"/>
                        <path d="M196.7,129.516L196.7,132.724L194.658,132.724L194.658,135.408L196.7,135.408L196.7,142.087C196.7,143.953 197.05,145.237 197.808,146.053C198.479,146.783 199.587,147.22 200.9,147.22C202.037,147.22 202.971,147.074 203.496,146.87L203.437,144.128C203.117,144.216 202.65,144.303 202.037,144.303C200.667,144.303 200.2,143.399 200.2,141.678L200.2,135.408L203.612,135.408L203.612,132.724L200.2,132.724L200.2,128.67L196.7,129.516Z" style="fill:rgb(74,73,73);fill-rule:nonzero;"/>
                        <path d="M211.4,146.928L211.4,132.724L207.783,132.724L207.783,146.928L211.4,146.928ZM209.592,126.803C208.396,126.803 207.579,127.649 207.579,128.758C207.579,129.837 208.367,130.683 209.562,130.683C210.817,130.683 211.604,129.837 211.604,128.758C211.575,127.649 210.817,126.803 209.592,126.803Z" style="fill:rgb(74,73,73);fill-rule:nonzero;"/>
                        <path d="M215.833,146.228C216.883,146.812 218.429,147.22 220.15,147.22C223.912,147.22 225.925,145.353 225.925,142.787C225.896,140.687 224.7,139.374 222.133,138.441C220.325,137.799 219.654,137.362 219.654,136.458C219.654,135.583 220.354,134.97 221.637,134.97C222.892,134.97 224.029,135.437 224.642,135.787L225.342,133.249C224.525,132.812 223.154,132.403 221.579,132.403C218.283,132.403 216.212,134.358 216.212,136.866C216.183,138.528 217.35,140.045 220.121,141.008C221.871,141.62 222.454,142.116 222.454,143.078C222.454,144.012 221.754,144.653 220.179,144.653C218.896,144.653 217.35,144.128 216.533,143.633L215.833,146.228Z" style="fill:rgb(74,73,73);fill-rule:nonzero;"/>
                        <path d="M240.275,143.837C239.575,144.128 238.7,144.391 237.446,144.391C234.996,144.391 233.1,142.728 233.1,139.812C233.071,137.216 234.704,135.203 237.446,135.203C238.729,135.203 239.575,135.495 240.158,135.758L240.8,133.074C239.983,132.695 238.642,132.403 237.329,132.403C232.342,132.403 229.425,135.728 229.425,139.987C229.425,144.391 232.312,147.22 236.746,147.22C238.525,147.22 240.012,146.841 240.771,146.491L240.275,143.837Z" style="fill:rgb(74,73,73);fill-rule:nonzero;"/>
                        <path d="M244.883,146.928L248.5,146.928L248.5,138.441C248.5,138.033 248.529,137.653 248.646,137.362C249.025,136.283 250.017,135.349 251.417,135.349C253.4,135.349 254.158,136.895 254.158,138.966L254.158,146.928L257.746,146.928L257.746,138.558C257.746,134.008 255.208,132.403 252.787,132.403C251.883,132.403 251.037,132.637 250.337,133.045C249.579,133.453 248.996,134.008 248.558,134.678L248.5,134.678L248.5,126.22L244.883,126.22L244.883,146.928Z" style="fill:rgb(74,73,73);fill-rule:nonzero;"/>
                        <path d="M275.071,140.833C275.129,140.512 275.187,139.987 275.187,139.316C275.187,136.195 273.671,132.403 269.062,132.403C264.513,132.403 262.121,136.108 262.121,140.045C262.121,144.391 264.833,147.22 269.442,147.22C271.483,147.22 273.175,146.841 274.4,146.345L273.875,143.866C272.796,144.274 271.6,144.508 269.937,144.508C267.662,144.508 265.65,143.399 265.562,140.833L275.071,140.833ZM265.562,138.324C265.708,136.866 266.642,134.853 268.858,134.853C271.25,134.853 271.833,137.012 271.804,138.324L265.562,138.324Z" style="fill:rgb(74,73,73);fill-rule:nonzero;"/>
                        <path d="M287.175,146.928L290.733,146.928L290.733,139.52C291.2,139.608 291.812,139.637 292.483,139.637C295.021,139.637 297.267,138.966 298.696,137.537C299.804,136.487 300.387,134.941 300.387,133.074C300.387,131.237 299.629,129.691 298.463,128.728C297.208,127.678 295.283,127.124 292.658,127.124C290.237,127.124 288.458,127.299 287.175,127.533L287.175,146.928ZM290.733,130.041C291.112,129.953 291.812,129.866 292.804,129.866C295.283,129.866 296.8,131.033 296.8,133.22C296.8,135.524 295.167,136.837 292.483,136.837C291.754,136.837 291.171,136.808 290.733,136.691L290.733,130.041Z" style="fill:rgb(74,73,73);fill-rule:nonzero;"/>
                        <path d="M315.408,146.928C315.262,146.053 315.204,144.799 315.204,143.516L315.204,138.383C315.204,135.291 313.892,132.403 309.342,132.403C307.096,132.403 305.258,133.016 304.208,133.658L304.908,135.991C305.871,135.378 307.329,134.941 308.729,134.941C311.237,134.941 311.617,136.487 311.617,137.42L311.617,137.653C306.367,137.624 303.187,139.433 303.187,143.02C303.187,145.178 304.792,147.249 307.65,147.249C309.487,147.249 310.975,146.462 311.85,145.353L311.937,145.353L312.171,146.928L315.408,146.928ZM311.704,141.941C311.704,142.174 311.675,142.466 311.587,142.728C311.267,143.749 310.217,144.683 308.787,144.683C307.65,144.683 306.746,144.041 306.746,142.641C306.746,140.483 309.167,139.928 311.704,139.987L311.704,141.941Z" style="fill:rgb(74,73,73);fill-rule:nonzero;"/>
                        <path d="M320.454,146.928L324.042,146.928L324.042,139.578C324.042,139.17 324.1,138.791 324.158,138.47C324.479,136.866 325.646,135.758 327.367,135.758C327.804,135.758 328.125,135.816 328.417,135.874L328.417,132.491C328.125,132.433 327.921,132.403 327.571,132.403C326.054,132.403 324.392,133.424 323.692,135.437L323.575,135.437L323.458,132.724L320.337,132.724C320.425,134.008 320.454,135.378 320.454,137.303L320.454,146.928Z" style="fill:rgb(74,73,73);fill-rule:nonzero;"/>
                        <path d="M333.579,129.516L333.579,132.724L331.537,132.724L331.537,135.408L333.579,135.408L333.579,142.087C333.579,143.953 333.929,145.237 334.687,146.053C335.358,146.783 336.467,147.22 337.779,147.22C338.917,147.22 339.85,147.074 340.375,146.87L340.317,144.128C339.996,144.216 339.529,144.303 338.917,144.303C337.546,144.303 337.079,143.399 337.079,141.678L337.079,135.408L340.492,135.408L340.492,132.724L337.079,132.724L337.079,128.67L333.579,129.516Z" style="fill:rgb(74,73,73);fill-rule:nonzero;"/>
                        <path d="M356.533,140.833C356.592,140.512 356.65,139.987 356.65,139.316C356.65,136.195 355.133,132.403 350.525,132.403C345.975,132.403 343.583,136.108 343.583,140.045C343.583,144.391 346.296,147.22 350.904,147.22C352.946,147.22 354.637,146.841 355.862,146.345L355.337,143.866C354.258,144.274 353.062,144.508 351.4,144.508C349.125,144.508 347.112,143.399 347.025,140.833L356.533,140.833ZM347.025,138.324C347.171,136.866 348.104,134.853 350.321,134.853C352.712,134.853 353.296,137.012 353.267,138.324L347.025,138.324Z" style="fill:rgb(74,73,73);fill-rule:nonzero;"/>
                        <path d="M364.612,146.928L364.612,132.724L360.996,132.724L360.996,146.928L364.612,146.928ZM362.804,126.803C361.608,126.803 360.792,127.649 360.792,128.758C360.792,129.837 361.579,130.683 362.775,130.683C364.029,130.683 364.817,129.837 364.817,128.758C364.787,127.649 364.029,126.803 362.804,126.803Z" style="fill:rgb(74,73,73);fill-rule:nonzero;"/>
                        <path d="M377.562,146.87C378.729,147.016 380.304,147.133 382.404,147.133C386.225,147.133 389.346,146.228 391.3,144.449C393.167,142.758 394.362,140.133 394.362,136.633C394.362,133.278 393.196,130.945 391.3,129.399C389.492,127.883 386.954,127.124 383.279,127.124C381.15,127.124 379.137,127.27 377.562,127.533L377.562,146.87ZM381.15,130.128C381.646,130.012 382.462,129.924 383.6,129.924C388.092,129.924 390.6,132.403 390.571,136.749C390.571,141.737 387.8,144.303 383.133,144.274C382.404,144.274 381.646,144.274 381.15,144.187L381.15,130.128Z" style="fill:rgb(74,73,73);fill-rule:nonzero;"/>
                        <path d="M410.842,140.833C410.9,140.512 410.958,139.987 410.958,139.316C410.958,136.195 409.442,132.403 404.833,132.403C400.283,132.403 397.892,136.108 397.892,140.045C397.892,144.391 400.604,147.22 405.212,147.22C407.254,147.22 408.946,146.841 410.171,146.345L409.646,143.866C408.567,144.274 407.371,144.508 405.708,144.508C403.433,144.508 401.421,143.399 401.333,140.833L410.842,140.833ZM401.333,138.324C401.479,136.866 402.412,134.853 404.629,134.853C407.021,134.853 407.604,137.012 407.575,138.324L401.333,138.324Z" style="fill:rgb(74,73,73);fill-rule:nonzero;"/>
                        <path d="M428.021,132.724L424.433,132.724L424.433,141.299C424.433,141.708 424.346,142.087 424.229,142.408C423.85,143.312 422.917,144.333 421.487,144.333C419.592,144.333 418.833,142.816 418.833,140.453L418.833,132.724L415.246,132.724L415.246,141.066C415.246,145.703 417.608,147.249 420.204,147.249C422.742,147.249 424.142,145.791 424.754,144.77L424.812,144.77L424.987,146.928L428.137,146.928C428.079,145.762 428.021,144.362 428.021,142.67L428.021,132.724Z" style="fill:rgb(74,73,73);fill-rule:nonzero;"/>
                        <path d="M433.971,129.516L433.971,132.724L431.929,132.724L431.929,135.408L433.971,135.408L433.971,142.087C433.971,143.953 434.321,145.237 435.079,146.053C435.75,146.783 436.858,147.22 438.171,147.22C439.308,147.22 440.242,147.074 440.767,146.87L440.708,144.128C440.387,144.216 439.921,144.303 439.308,144.303C437.937,144.303 437.471,143.399 437.471,141.678L437.471,135.408L440.883,135.408L440.883,132.724L437.471,132.724L437.471,128.67L433.971,129.516Z" style="fill:rgb(74,73,73);fill-rule:nonzero;"/>
                        <path d="M444.179,146.228C445.229,146.812 446.775,147.22 448.496,147.22C452.258,147.22 454.271,145.353 454.271,142.787C454.242,140.687 453.046,139.374 450.479,138.441C448.671,137.799 448,137.362 448,136.458C448,135.583 448.7,134.97 449.983,134.97C451.237,134.97 452.375,135.437 452.987,135.787L453.687,133.249C452.871,132.812 451.5,132.403 449.925,132.403C446.629,132.403 444.558,134.358 444.558,136.866C444.529,138.528 445.696,140.045 448.467,141.008C450.217,141.62 450.8,142.116 450.8,143.078C450.8,144.012 450.1,144.653 448.525,144.653C447.242,144.653 445.696,144.128 444.879,143.633L444.179,146.228Z" style="fill:rgb(74,73,73);fill-rule:nonzero;"/>
                        <path d="M468.621,143.837C467.921,144.128 467.046,144.391 465.792,144.391C463.342,144.391 461.446,142.728 461.446,139.812C461.417,137.216 463.05,135.203 465.792,135.203C467.075,135.203 467.921,135.495 468.504,135.758L469.146,133.074C468.329,132.695 466.987,132.403 465.675,132.403C460.687,132.403 457.771,135.728 457.771,139.987C457.771,144.391 460.658,147.22 465.092,147.22C466.871,147.22 468.358,146.841 469.117,146.491L468.621,143.837Z" style="fill:rgb(74,73,73);fill-rule:nonzero;"/>
                        <path d="M473.229,146.928L476.846,146.928L476.846,138.441C476.846,138.033 476.875,137.653 476.992,137.362C477.371,136.283 478.362,135.349 479.762,135.349C481.746,135.349 482.504,136.895 482.504,138.966L482.504,146.928L486.092,146.928L486.092,138.558C486.092,134.008 483.554,132.403 481.133,132.403C480.229,132.403 479.383,132.637 478.683,133.045C477.925,133.453 477.342,134.008 476.904,134.678L476.846,134.678L476.846,126.22L473.229,126.22L473.229,146.928Z" style="fill:rgb(74,73,73);fill-rule:nonzero;"/>
                        <rect x="491.371" y="126.22" width="3.617" height="20.708" style="fill:rgb(74,73,73);"/>
                        <path d="M511.554,146.928C511.408,146.053 511.35,144.799 511.35,143.516L511.35,138.383C511.35,135.291 510.037,132.403 505.487,132.403C503.242,132.403 501.404,133.016 500.354,133.658L501.054,135.991C502.017,135.378 503.475,134.941 504.875,134.941C507.383,134.941 507.762,136.487 507.762,137.42L507.762,137.653C502.512,137.624 499.333,139.433 499.333,143.02C499.333,145.178 500.937,147.249 503.796,147.249C505.633,147.249 507.121,146.462 507.996,145.353L508.083,145.353L508.317,146.928L511.554,146.928ZM507.85,141.941C507.85,142.174 507.821,142.466 507.733,142.728C507.412,143.749 506.362,144.683 504.933,144.683C503.796,144.683 502.892,144.041 502.892,142.641C502.892,140.483 505.312,139.928 507.85,139.987L507.85,141.941Z" style="fill:rgb(74,73,73);fill-rule:nonzero;"/>
                        <path d="M516.6,146.928L520.217,146.928L520.217,138.587C520.217,138.178 520.246,137.741 520.362,137.42C520.742,136.341 521.733,135.32 523.162,135.32C525.117,135.32 525.875,136.866 525.875,138.908L525.875,146.928L529.462,146.928L529.462,138.499C529.462,134.008 526.896,132.403 524.417,132.403C522.054,132.403 520.508,133.745 519.896,134.853L519.808,134.853L519.633,132.724L516.483,132.724C516.571,133.949 516.6,135.32 516.6,136.953L516.6,146.928Z" style="fill:rgb(74,73,73);fill-rule:nonzero;"/>
                        <path d="M544.25,126.22L544.25,134.27L544.192,134.27C543.55,133.22 542.15,132.403 540.196,132.403C536.783,132.403 533.808,135.233 533.837,139.987C533.837,144.362 536.521,147.249 539.904,147.249C541.975,147.249 543.696,146.258 544.542,144.683L544.6,144.683L544.746,146.928L547.954,146.928C547.896,145.966 547.837,144.391 547.837,142.933L547.837,126.22L544.25,126.22ZM544.25,140.774C544.25,141.153 544.221,141.503 544.133,141.824C543.783,143.37 542.5,144.362 541.042,144.362C538.767,144.362 537.483,142.466 537.483,139.87C537.483,137.216 538.767,135.174 541.071,135.174C542.704,135.174 543.842,136.312 544.162,137.712C544.221,138.003 544.25,138.353 544.25,138.645L544.25,140.774Z" style="fill:rgb(74,73,73);fill-rule:nonzero;"/>
                        <path d="M2.071,181.928L5.629,181.928L5.629,175.016L7.379,172.916L12.95,181.928L17.15,181.928L9.946,170.641L16.713,162.27L12.279,162.27L7.146,169.183C6.679,169.853 6.183,170.553 5.717,171.312L5.629,171.312L5.629,162.27L2.071,162.27L2.071,181.928Z" style="fill:rgb(74,73,73);fill-rule:nonzero;"/>
                        <path d="M20.504,181.928L24.092,181.928L24.092,174.578C24.092,174.17 24.15,173.791 24.208,173.47C24.529,171.866 25.696,170.758 27.417,170.758C27.854,170.758 28.175,170.816 28.467,170.874L28.467,167.491C28.175,167.433 27.971,167.403 27.621,167.403C26.104,167.403 24.442,168.424 23.742,170.437L23.625,170.437L23.508,167.724L20.387,167.724C20.475,169.008 20.504,170.378 20.504,172.303L20.504,181.928Z" style="fill:rgb(74,73,73);fill-rule:nonzero;"/>
                        <path d="M44.129,175.833C44.187,175.512 44.246,174.987 44.246,174.316C44.246,171.195 42.729,167.403 38.121,167.403C33.571,167.403 31.179,171.108 31.179,175.045C31.179,179.391 33.892,182.22 38.5,182.22C40.542,182.22 42.233,181.841 43.458,181.345L42.933,178.866C41.854,179.274 40.658,179.508 38.996,179.508C36.721,179.508 34.708,178.399 34.621,175.833L44.129,175.833ZM34.621,173.324C34.767,171.866 35.7,169.853 37.917,169.853C40.308,169.853 40.892,172.012 40.862,173.324L34.621,173.324Z" style="fill:rgb(74,73,73);fill-rule:nonzero;"/>
                        <path d="M52.208,181.928L52.208,167.724L48.592,167.724L48.592,181.928L52.208,181.928ZM50.4,161.803C49.204,161.803 48.387,162.649 48.387,163.758C48.387,164.837 49.175,165.683 50.371,165.683C51.625,165.683 52.412,164.837 52.412,163.758C52.383,162.649 51.625,161.803 50.4,161.803Z" style="fill:rgb(74,73,73);fill-rule:nonzero;"/>
                        <path d="M56.642,181.228C57.692,181.812 59.237,182.22 60.958,182.22C64.721,182.22 66.733,180.353 66.733,177.787C66.704,175.687 65.508,174.374 62.942,173.441C61.133,172.799 60.462,172.362 60.462,171.458C60.462,170.583 61.162,169.97 62.446,169.97C63.7,169.97 64.837,170.437 65.45,170.787L66.15,168.249C65.333,167.812 63.962,167.403 62.387,167.403C59.092,167.403 57.021,169.358 57.021,171.866C56.992,173.528 58.158,175.045 60.929,176.008C62.679,176.62 63.262,177.116 63.262,178.078C63.262,179.012 62.562,179.653 60.987,179.653C59.704,179.653 58.158,179.128 57.342,178.633L56.642,181.228Z" style="fill:rgb(74,73,73);fill-rule:nonzero;"/>
                        <path d="M69.533,167.724L74.812,181.928L78.342,181.928L83.767,167.724L79.975,167.724L77.729,174.928C77.35,176.212 77.029,177.32 76.767,178.487L76.679,178.487C76.417,177.32 76.125,176.183 75.717,174.928L73.413,167.724L69.533,167.724Z" style="fill:rgb(74,73,73);fill-rule:nonzero;"/>
                        <path d="M99.079,175.833C99.138,175.512 99.196,174.987 99.196,174.316C99.196,171.195 97.679,167.403 93.071,167.403C88.521,167.403 86.129,171.108 86.129,175.045C86.129,179.391 88.842,182.22 93.45,182.22C95.492,182.22 97.183,181.841 98.408,181.345L97.883,178.866C96.804,179.274 95.608,179.508 93.946,179.508C91.671,179.508 89.658,178.399 89.571,175.833L99.079,175.833ZM89.571,173.324C89.717,171.866 90.65,169.853 92.867,169.853C95.258,169.853 95.842,172.012 95.813,173.324L89.571,173.324Z" style="fill:rgb(74,73,73);fill-rule:nonzero;"/>
                        <path d="M103.542,181.928L107.129,181.928L107.129,174.578C107.129,174.17 107.187,173.791 107.246,173.47C107.567,171.866 108.733,170.758 110.454,170.758C110.892,170.758 111.212,170.816 111.504,170.874L111.504,167.491C111.212,167.433 111.008,167.403 110.658,167.403C109.142,167.403 107.479,168.424 106.779,170.437L106.662,170.437L106.546,167.724L103.425,167.724C103.512,169.008 103.542,170.378 103.542,172.303L103.542,181.928Z" style="fill:rgb(74,73,73);fill-rule:nonzero;"/>
                        <path d="M118.329,181.928L118.504,179.799L118.563,179.799C119.583,181.549 121.217,182.249 123.054,182.249C126.262,182.249 129.5,179.712 129.5,174.608C129.529,170.291 127.05,167.403 123.579,167.403C121.45,167.403 119.904,168.308 119.029,169.678L118.971,169.678L118.971,161.22L115.383,161.22L115.383,177.933C115.383,179.391 115.325,180.966 115.267,181.928L118.329,181.928ZM118.971,173.762C118.971,173.412 119.029,173.091 119.087,172.828C119.496,171.253 120.808,170.203 122.267,170.203C124.658,170.203 125.854,172.245 125.854,174.753C125.854,177.612 124.483,179.42 122.238,179.42C120.692,179.42 119.438,178.341 119.058,176.912C119,176.649 118.971,176.358 118.971,176.066L118.971,173.762Z" style="fill:rgb(74,73,73);fill-rule:nonzero;"/>
                        <path d="M145.133,181.928C144.987,181.053 144.929,179.799 144.929,178.516L144.929,173.383C144.929,170.291 143.617,167.403 139.067,167.403C136.821,167.403 134.983,168.016 133.933,168.658L134.633,170.991C135.596,170.378 137.054,169.941 138.454,169.941C140.962,169.941 141.342,171.487 141.342,172.42L141.342,172.653C136.092,172.624 132.913,174.433 132.913,178.02C132.913,180.178 134.517,182.249 137.375,182.249C139.212,182.249 140.7,181.462 141.575,180.353L141.663,180.353L141.896,181.928L145.133,181.928ZM141.429,176.941C141.429,177.174 141.4,177.466 141.313,177.728C140.992,178.749 139.942,179.683 138.513,179.683C137.375,179.683 136.471,179.041 136.471,177.641C136.471,175.483 138.892,174.928 141.429,174.987L141.429,176.941Z" style="fill:rgb(74,73,73);fill-rule:nonzero;"/>
                        <path d="M150.179,181.928L153.796,181.928L153.796,173.587C153.796,173.178 153.825,172.741 153.942,172.42C154.321,171.341 155.313,170.32 156.742,170.32C158.696,170.32 159.454,171.866 159.454,173.908L159.454,181.928L163.042,181.928L163.042,173.499C163.042,169.008 160.475,167.403 157.996,167.403C155.633,167.403 154.088,168.745 153.475,169.853L153.387,169.853L153.213,167.724L150.063,167.724C150.15,168.949 150.179,170.32 150.179,171.953L150.179,181.928Z" style="fill:rgb(74,73,73);fill-rule:nonzero;"/>
                        <path d="M177.829,161.22L177.829,169.27L177.771,169.27C177.129,168.22 175.729,167.403 173.775,167.403C170.363,167.403 167.388,170.233 167.417,174.987C167.417,179.362 170.1,182.249 173.483,182.249C175.554,182.249 177.275,181.258 178.121,179.683L178.179,179.683L178.325,181.928L181.533,181.928C181.475,180.966 181.417,179.391 181.417,177.933L181.417,161.22L177.829,161.22ZM177.829,175.774C177.829,176.153 177.8,176.503 177.713,176.824C177.363,178.37 176.079,179.362 174.621,179.362C172.346,179.362 171.063,177.466 171.063,174.87C171.063,172.216 172.346,170.174 174.65,170.174C176.283,170.174 177.421,171.312 177.742,172.712C177.8,173.003 177.829,173.353 177.829,173.645L177.829,175.774Z" style="fill:rgb(74,73,73);fill-rule:nonzero;"/>
                        <path d="M194.367,181.87C195.533,182.016 197.108,182.133 199.208,182.133C203.029,182.133 206.15,181.228 208.104,179.449C209.971,177.758 211.167,175.133 211.167,171.633C211.167,168.278 210,165.945 208.104,164.399C206.296,162.883 203.758,162.124 200.083,162.124C197.954,162.124 195.942,162.27 194.367,162.533L194.367,181.87ZM197.954,165.128C198.45,165.012 199.267,164.924 200.404,164.924C204.896,164.924 207.404,167.403 207.375,171.749C207.375,176.737 204.604,179.303 199.938,179.274C199.208,179.274 198.45,179.274 197.954,179.187L197.954,165.128Z" style="fill:rgb(74,73,73);fill-rule:nonzero;"/>
                        <path d="M219.304,181.928L219.304,167.724L215.688,167.724L215.688,181.928L219.304,181.928ZM217.496,161.803C216.3,161.803 215.483,162.649 215.483,163.758C215.483,164.837 216.271,165.683 217.467,165.683C218.721,165.683 219.508,164.837 219.508,163.758C219.479,162.649 218.721,161.803 217.496,161.803Z" style="fill:rgb(74,73,73);fill-rule:nonzero;"/>
                        <path d="M236.658,175.833C236.717,175.512 236.775,174.987 236.775,174.316C236.775,171.195 235.258,167.403 230.65,167.403C226.1,167.403 223.708,171.108 223.708,175.045C223.708,179.391 226.421,182.22 231.029,182.22C233.071,182.22 234.762,181.841 235.988,181.345L235.463,178.866C234.383,179.274 233.188,179.508 231.525,179.508C229.25,179.508 227.238,178.399 227.15,175.833L236.658,175.833ZM227.15,173.324C227.296,171.866 228.229,169.853 230.446,169.853C232.838,169.853 233.421,172.012 233.392,173.324L227.15,173.324Z" style="fill:rgb(74,73,73);fill-rule:nonzero;"/>
                        <path d="M241.121,187.703L244.708,187.703L244.708,180.353L244.767,180.353C245.496,181.491 246.983,182.249 248.762,182.249C252,182.249 255.237,179.77 255.237,174.637C255.237,170.203 252.525,167.403 249.258,167.403C247.1,167.403 245.438,168.308 244.387,169.912L244.329,169.912L244.154,167.724L241.004,167.724C241.063,169.066 241.121,170.583 241.121,172.449L241.121,187.703ZM244.708,173.791C244.708,173.499 244.767,173.178 244.854,172.887C245.204,171.312 246.575,170.233 248.063,170.233C250.367,170.233 251.592,172.274 251.592,174.783C251.592,177.583 250.25,179.478 247.975,179.478C246.458,179.478 245.175,178.428 244.825,176.97C244.737,176.649 244.708,176.328 244.708,175.978L244.708,173.791Z" style="fill:rgb(74,73,73);fill-rule:nonzero;"/>
                        <path d="M259.642,181.928L263.258,181.928L263.258,173.441C263.258,173.033 263.287,172.653 263.404,172.362C263.783,171.283 264.775,170.349 266.175,170.349C268.158,170.349 268.917,171.895 268.917,173.966L268.917,181.928L272.504,181.928L272.504,173.558C272.504,169.008 269.967,167.403 267.546,167.403C266.642,167.403 265.796,167.637 265.096,168.045C264.338,168.453 263.754,169.008 263.317,169.678L263.258,169.678L263.258,161.22L259.642,161.22L259.642,181.928Z" style="fill:rgb(74,73,73);fill-rule:nonzero;"/>
                        <path d="M284.229,167.403C279.942,167.403 276.879,170.262 276.879,174.928C276.879,179.478 279.971,182.249 283.996,182.249C287.612,182.249 291.287,179.916 291.287,174.695C291.287,170.378 288.458,167.403 284.229,167.403ZM284.142,170.028C286.592,170.028 287.583,172.566 287.583,174.783C287.583,177.641 286.154,179.653 284.112,179.653C281.925,179.653 280.583,177.583 280.583,174.841C280.583,172.478 281.604,170.028 284.142,170.028Z" style="fill:rgb(74,73,73);fill-rule:nonzero;"/>
                        <rect x="295.692" y="161.22" width="3.617" height="20.708" style="fill:rgb(74,73,73);"/>
                        <path d="M303.304,181.928L315.292,181.928L315.292,179.07L307.796,179.07L307.796,179.012C308.525,178.253 309.196,177.437 309.896,176.591L315.117,169.912L315.117,167.724L303.829,167.724L303.829,170.583L310.742,170.583L310.742,170.641C309.983,171.458 309.371,172.158 308.642,173.033L303.304,179.858L303.304,181.928Z" style="fill:rgb(74,73,73);fill-rule:nonzero;"/>
                        <rect x="318.179" y="172.916" width="7.438" height="2.479" style="fill:rgb(74,73,73);"/>
                        <path d="M333.317,181.928L333.317,174.899C333.317,171.662 333.287,169.066 333.142,166.528L333.229,166.499C334.192,168.716 335.504,171.137 336.758,173.295L341.892,181.928L345.596,181.928L345.596,162.27L342.271,162.27L342.271,169.124C342.271,172.128 342.358,174.666 342.592,177.291L342.533,177.291C341.629,175.162 340.492,172.887 339.179,170.699L334.104,162.27L330.021,162.27L330.021,181.928L333.317,181.928Z" style="fill:rgb(74,73,73);fill-rule:nonzero;"/>
                        <path d="M354.842,181.928L354.842,167.724L351.225,167.724L351.225,181.928L354.842,181.928ZM353.033,161.803C351.837,161.803 351.021,162.649 351.021,163.758C351.021,164.837 351.808,165.683 353.004,165.683C354.258,165.683 355.046,164.837 355.046,163.758C355.017,162.649 354.258,161.803 353.033,161.803Z" style="fill:rgb(74,73,73);fill-rule:nonzero;"/>
                        <path d="M372.196,175.833C372.254,175.512 372.312,174.987 372.312,174.316C372.312,171.195 370.796,167.403 366.187,167.403C361.638,167.403 359.246,171.108 359.246,175.045C359.246,179.391 361.958,182.22 366.567,182.22C368.608,182.22 370.3,181.841 371.525,181.345L371,178.866C369.921,179.274 368.725,179.508 367.062,179.508C364.787,179.508 362.775,178.399 362.687,175.833L372.196,175.833ZM362.687,173.324C362.833,171.866 363.767,169.853 365.983,169.853C368.375,169.853 368.958,172.012 368.929,173.324L362.687,173.324Z" style="fill:rgb(74,73,73);fill-rule:nonzero;"/>
                        <path d="M376.658,181.928L380.275,181.928L380.275,173.587C380.275,173.178 380.304,172.741 380.421,172.42C380.8,171.341 381.792,170.32 383.221,170.32C385.175,170.32 385.933,171.866 385.933,173.908L385.933,181.928L389.521,181.928L389.521,173.499C389.521,169.008 386.954,167.403 384.475,167.403C382.112,167.403 380.567,168.745 379.954,169.853L379.867,169.853L379.692,167.724L376.542,167.724C376.629,168.949 376.658,170.32 376.658,171.953L376.658,181.928Z" style="fill:rgb(74,73,73);fill-rule:nonzero;"/>
                        <path d="M397.746,181.928L397.921,179.799L397.979,179.799C399,181.549 400.633,182.249 402.471,182.249C405.679,182.249 408.917,179.712 408.917,174.608C408.946,170.291 406.467,167.403 402.996,167.403C400.867,167.403 399.321,168.308 398.446,169.678L398.387,169.678L398.387,161.22L394.8,161.22L394.8,177.933C394.8,179.391 394.742,180.966 394.683,181.928L397.746,181.928ZM398.387,173.762C398.387,173.412 398.446,173.091 398.504,172.828C398.912,171.253 400.225,170.203 401.683,170.203C404.075,170.203 405.271,172.245 405.271,174.753C405.271,177.612 403.9,179.42 401.654,179.42C400.108,179.42 398.854,178.341 398.475,176.912C398.417,176.649 398.387,176.358 398.387,176.066L398.387,173.762Z" style="fill:rgb(74,73,73);fill-rule:nonzero;"/>
                        <path d="M426.037,167.724L422.45,167.724L422.45,176.299C422.45,176.708 422.362,177.087 422.246,177.408C421.867,178.312 420.933,179.333 419.504,179.333C417.608,179.333 416.85,177.816 416.85,175.453L416.85,167.724L413.262,167.724L413.262,176.066C413.262,180.703 415.625,182.249 418.221,182.249C420.758,182.249 422.158,180.791 422.771,179.77L422.829,179.77L423.004,181.928L426.154,181.928C426.096,180.762 426.037,179.362 426.037,177.67L426.037,167.724Z" style="fill:rgb(74,73,73);fill-rule:nonzero;"/>
                        <path d="M431.375,181.928L434.962,181.928L434.962,174.578C434.962,174.17 435.021,173.791 435.079,173.47C435.4,171.866 436.567,170.758 438.287,170.758C438.725,170.758 439.046,170.816 439.337,170.874L439.337,167.491C439.046,167.433 438.842,167.403 438.492,167.403C436.975,167.403 435.312,168.424 434.612,170.437L434.496,170.437L434.379,167.724L431.258,167.724C431.346,169.008 431.375,170.378 431.375,172.303L431.375,181.928Z" style="fill:rgb(74,73,73);fill-rule:nonzero;"/>
                        <path d="M452.842,167.724L452.696,169.62L452.637,169.62C451.967,168.453 450.683,167.403 448.525,167.403C445.112,167.403 442.079,170.233 442.079,174.899C442.079,178.924 444.587,181.841 448.117,181.841C449.983,181.841 451.442,180.995 452.258,179.741L452.317,179.741L452.317,180.966C452.317,184.028 450.567,185.253 448.233,185.253C446.512,185.253 444.996,184.699 444.092,184.174L443.304,186.887C444.529,187.645 446.454,188.024 448.262,188.024C450.217,188.024 452.258,187.616 453.746,186.303C455.233,184.962 455.846,182.833 455.846,179.858L455.846,171.808C455.846,169.853 455.904,168.687 455.962,167.724L452.842,167.724ZM452.258,175.716C452.258,176.124 452.2,176.62 452.112,176.999C451.704,178.283 450.537,179.158 449.196,179.158C446.95,179.158 445.725,177.203 445.725,174.783C445.725,171.895 447.212,170.145 449.225,170.145C450.742,170.145 451.762,171.137 452.142,172.449C452.229,172.741 452.258,173.091 452.258,173.412L452.258,175.716Z" style="fill:rgb(74,73,73);fill-rule:nonzero;"/>
                        <path d="M473.608,181.928L477.079,181.928L477.079,162.97L474.075,162.97L469.467,165.245L470.079,167.958L473.55,166.208L473.608,166.208L473.608,181.928Z" style="fill:rgb(74,73,73);fill-rule:nonzero;"/>
                    </g>
                </g>
            </g>
        </g>
    </g>
</svg>
